<svg width="40" height="40" viewBox="0 0 40 40" fill="none" xmlns="http://www.w3.org/2000/svg">
<path d="M24.7083 29.2931C24.8012 29.386 24.8749 29.4963 24.9252 29.6177C24.9755 29.7391 25.0013 29.8692 25.0013 30.0006C25.0013 30.132 24.9755 30.2621 24.9252 30.3835C24.8749 30.5048 24.8012 30.6151 24.7083 30.7081C24.6154 30.801 24.5051 30.8747 24.3837 30.9249C24.2623 30.9752 24.1322 31.0011 24.0008 31.0011C23.8694 31.0011 23.7393 30.9752 23.6179 30.9249C23.4965 30.8747 23.3862 30.801 23.2933 30.7081L13.2933 20.7081C13.2003 20.6152 13.1266 20.5049 13.0762 20.3835C13.0259 20.2621 13 20.132 13 20.0006C13 19.8691 13.0259 19.739 13.0762 19.6176C13.1266 19.4962 13.2003 19.3859 13.2933 19.2931L23.2933 9.29306C23.4809 9.10542 23.7354 9 24.0008 9C24.2662 9 24.5206 9.10542 24.7083 9.29306C24.8959 9.4807 25.0013 9.73519 25.0013 10.0006C25.0013 10.2659 24.8959 10.5204 24.7083 10.7081L15.4145 20.0006L24.7083 29.2931Z" fill="#3772FE"/>
<path d="M33.3047 0.5L39.5 6.21777V39.5H7.2168L0.5 32.3027V0.5H33.3047Z" stroke="#3772FE"/>
</svg>
