<svg width="23" height="22" viewBox="0 0 23 22" fill="none" xmlns="http://www.w3.org/2000/svg">
<rect y="-0.000366211" width="22.1993" height="22.0008" rx="11.0004" fill="white" fill-opacity="0.15"/>
<rect y="-0.000366211" width="22.1993" height="22.0008" rx="11.0004" fill="url(#paint0_linear_2052_22718)"/>
<path d="M14.0996 17.5006C14.0996 17.6332 14.0469 17.7604 13.9532 17.8542C13.8594 17.9479 13.7322 18.0006 13.5996 18.0006H8.59983C8.46722 18.0006 8.34005 17.9479 8.24629 17.8542C8.15252 17.7604 8.09984 17.6332 8.09984 17.5006C8.09984 17.368 8.15252 17.2408 8.24629 17.1471C8.34005 17.0533 8.46722 17.0006 8.59983 17.0006H13.5996C13.7322 17.0006 13.8594 17.0533 13.9532 17.1471C14.0469 17.2408 14.0996 17.368 14.0996 17.5006ZM16.5995 9.50091C16.6017 10.3344 16.4134 11.1574 16.049 11.907C15.6847 12.6567 15.1539 13.3131 14.4971 13.8264C14.3743 13.9205 14.2747 14.0415 14.2058 14.18C14.1369 14.3185 14.1006 14.471 14.0996 14.6257V15.0007C14.0996 15.2659 13.9943 15.5203 13.8067 15.7078C13.6192 15.8953 13.3649 16.0007 13.0997 16.0007H9.09981C8.8346 16.0007 8.58026 15.8953 8.39273 15.7078C8.2052 15.5203 8.09984 15.2659 8.09984 15.0007V14.6257C8.09974 14.4728 8.06459 14.322 7.99709 14.1849C7.92959 14.0477 7.83155 13.9278 7.71048 13.8345C7.05538 13.3243 6.52493 12.6718 6.15928 11.9263C5.79362 11.1808 5.60235 10.3619 5.59994 9.53153C5.58369 6.55289 7.9911 4.07236 10.9672 4.00111C11.7006 3.98344 12.43 4.11264 13.1126 4.38111C13.7953 4.64957 14.4173 5.05188 14.9421 5.56436C15.4669 6.07683 15.8839 6.68911 16.1686 7.36517C16.4532 8.04122 16.5997 8.76738 16.5995 9.50091ZM15.5996 9.50091C15.5997 8.90072 15.4799 8.30656 15.2469 7.7534C15.014 7.20025 14.6728 6.69927 14.2434 6.27997C13.814 5.86067 13.305 5.53151 12.7464 5.31188C12.1879 5.09224 11.591 4.98657 10.991 5.00107C8.55358 5.05857 6.58677 7.08787 6.5999 9.52528C6.60218 10.2044 6.75889 10.8741 7.05817 11.4836C7.35744 12.0932 7.79144 12.6268 8.32734 13.0439C8.56823 13.2312 8.76308 13.4711 8.89697 13.7453C9.03086 14.0194 9.10025 14.3206 9.09981 14.6257V15.0007H13.0997V14.6257C13.1004 14.3197 13.1709 14.0179 13.306 13.7434C13.4411 13.4688 13.637 13.2287 13.879 13.0414C14.4166 12.6213 14.851 12.084 15.1492 11.4704C15.4474 10.8568 15.6014 10.1831 15.5996 9.50091ZM14.5927 8.91718C14.4631 8.19302 14.1147 7.52596 13.5944 7.00581C13.0742 6.48566 12.407 6.1374 11.6828 6.00791C11.6181 5.99699 11.5518 5.99894 11.4878 6.01364C11.4238 6.02833 11.3633 6.05549 11.3098 6.09356C11.2563 6.13163 11.2108 6.17987 11.176 6.23552C11.1411 6.29117 11.1175 6.35314 11.1066 6.4179C11.0957 6.48265 11.0976 6.54892 11.1123 6.61293C11.127 6.67693 11.1542 6.73741 11.1923 6.79092C11.2303 6.84443 11.2786 6.88991 11.3342 6.92478C11.3899 6.95965 11.4518 6.98321 11.5166 6.99412C12.5522 7.16849 13.4309 8.04721 13.6065 9.08467C13.6263 9.20112 13.6867 9.3068 13.7769 9.38299C13.8672 9.45918 13.9815 9.50095 14.0996 9.50091C14.1279 9.50074 14.1561 9.49844 14.184 9.49403C14.3147 9.47172 14.4312 9.39842 14.5078 9.29024C14.5845 9.18206 14.615 9.04787 14.5927 8.91718Z" fill="white"/>
<defs>
<linearGradient id="paint0_linear_2052_22718" x1="11.0996" y1="-0.000366211" x2="11.0996" y2="22.0004" gradientUnits="userSpaceOnUse">
<stop offset="0.206731" stop-color="#03268B"/>
<stop offset="1" stop-color="#000212"/>
</linearGradient>
</defs>
</svg>
