<svg width="16" height="16" viewBox="0 0 16 16" fill="none" xmlns="http://www.w3.org/2000/svg">
<g clip-path="url(#clip0_2396_84919)">
<path d="M9.77557 2.74609C8.78457 2.74697 7.81397 3.02773 6.97555 3.55605C6.13713 4.08438 5.46499 4.83877 5.03652 5.73236C4.5197 5.64434 3.99024 5.66457 3.48164 5.79176C2.97304 5.91895 2.49638 6.15034 2.08183 6.47128C1.66728 6.79222 1.32386 7.19572 1.07332 7.65624C0.822781 8.11676 0.670566 8.62428 0.626312 9.14667C0.582058 9.66906 0.646729 10.195 0.81623 10.6911C0.985732 11.1872 1.25637 11.6427 1.61103 12.0288C1.96568 12.4149 2.39662 12.7232 2.87658 12.9341C3.35654 13.145 3.87505 13.254 4.39932 13.2542H9.77557C11.169 13.2542 12.5054 12.7007 13.4908 11.7153C14.4761 10.73 15.0296 9.39362 15.0296 8.00016C15.0296 6.60669 14.4761 5.2703 13.4908 4.28497C12.5054 3.29965 11.169 2.74609 9.77557 2.74609ZM9.77557 12.5211H4.39932C3.58916 12.5211 2.81219 12.1993 2.23933 11.6264C1.66646 11.0535 1.34463 10.2766 1.34463 9.46641C1.34463 8.65625 1.66646 7.87928 2.23933 7.30642C2.81219 6.73355 3.58916 6.41172 4.39932 6.41172C4.51999 6.4118 4.64055 6.41894 4.76038 6.4331C4.6016 6.94028 4.52105 7.4687 4.5215 8.00016C4.5215 8.09737 4.56012 8.19061 4.62887 8.25936C4.69761 8.3281 4.79085 8.36672 4.88807 8.36672C4.98529 8.36672 5.07852 8.3281 5.14727 8.25936C5.21601 8.19061 5.25463 8.09737 5.25463 8.00016C5.25463 7.106 5.51978 6.23192 6.01654 5.48846C6.51331 4.74499 7.21939 4.16553 8.04548 3.82335C8.87157 3.48118 9.78058 3.39165 10.6576 3.56609C11.5345 3.74053 12.3401 4.17111 12.9724 4.80337C13.6046 5.43564 14.0352 6.24119 14.2096 7.11817C14.3841 7.99514 14.2945 8.90415 13.9524 9.73024C13.6102 10.5563 13.0307 11.2624 12.2873 11.7592C11.5438 12.2559 10.6697 12.5211 9.77557 12.5211Z" fill="#3772FE"/>
</g>
<defs>
<clipPath id="clip0_2396_84919">
<rect width="15.64" height="15.64" fill="white" transform="translate(0 0.179688)"/>
</clipPath>
</defs>
</svg>
