<svg width="14" height="14" viewBox="0 0 14 14" fill="none" xmlns="http://www.w3.org/2000/svg">
<path d="M10.0625 4.71086V4.40625C10.0625 3.03469 7.99367 2 5.25 2C2.50633 2 0.4375 3.03469 0.4375 4.40625V6.59375C0.4375 7.73617 1.87305 8.64398 3.9375 8.91578V9.21875C3.9375 10.5903 6.00633 11.625 8.75 11.625C11.4937 11.625 13.5625 10.5903 13.5625 9.21875V7.03125C13.5625 5.89922 12.1723 4.99031 10.0625 4.71086ZM12.6875 7.03125C12.6875 7.75422 11.0037 8.5625 8.75 8.5625C8.54602 8.5625 8.34367 8.55539 8.14406 8.54227C9.32367 8.11242 10.0625 7.41406 10.0625 6.59375V5.59516C11.696 5.83852 12.6875 6.49914 12.6875 7.03125ZM3.9375 8.0293V6.72828C4.37269 6.78499 4.81113 6.81312 5.25 6.8125C5.68887 6.81312 6.12731 6.78499 6.5625 6.72828V8.0293C6.12796 8.09349 5.68926 8.12548 5.25 8.125C4.81074 8.12548 4.37204 8.09349 3.9375 8.0293ZM9.1875 5.8243V6.59375C9.1875 7.05258 8.50883 7.54531 7.4375 7.84445V6.56641C8.14352 6.39523 8.74125 6.14039 9.1875 5.8243ZM5.25 2.875C7.50367 2.875 9.1875 3.68328 9.1875 4.40625C9.1875 5.12922 7.50367 5.9375 5.25 5.9375C2.99633 5.9375 1.3125 5.12922 1.3125 4.40625C1.3125 3.68328 2.99633 2.875 5.25 2.875ZM1.3125 6.59375V5.8243C1.75875 6.14039 2.35648 6.39523 3.0625 6.56641V7.84445C1.99117 7.54531 1.3125 7.05258 1.3125 6.59375ZM4.8125 9.21875V8.9907C4.95633 8.99617 5.1018 9 5.25 9C5.46219 9 5.66945 8.99289 5.87289 8.98086C6.09889 9.06176 6.3291 9.13041 6.5625 9.18648V10.4695C5.49117 10.1703 4.8125 9.67758 4.8125 9.21875ZM7.4375 10.6543V9.35C7.87255 9.40848 8.31104 9.43772 8.75 9.4375C9.18887 9.43812 9.62731 9.40999 10.0625 9.35328V10.6543C9.19215 10.7819 8.30785 10.7819 7.4375 10.6543ZM10.9375 10.4695V9.19141C11.6435 9.02023 12.2413 8.76539 12.6875 8.4493V9.21875C12.6875 9.67758 12.0088 10.1703 10.9375 10.4695Z" fill="#8193BC"/>
</svg>
