<svg width="13" height="12" viewBox="0 0 13 12" fill="none" xmlns="http://www.w3.org/2000/svg">
<g clip-path="url(#clip0_2052_28116)">
<g clip-path="url(#clip1_2052_28116)">
<path d="M4.75019 1.38464H3.36557C2.60205 1.38464 1.98096 2.00574 1.98096 2.76926V4.15387C1.98096 4.9174 2.60205 5.53849 3.36557 5.53849H4.75019C5.51371 5.53849 6.13481 4.9174 6.13481 4.15387V2.76926C6.13481 2.00574 5.51371 1.38464 4.75019 1.38464ZM5.21173 4.15387C5.21173 4.40831 5.00485 4.61541 4.75019 4.61541H3.36557C3.11092 4.61541 2.90403 4.40831 2.90403 4.15387V2.76926C2.90403 2.51482 3.11092 2.30772 3.36557 2.30772H4.75019C5.00485 2.30772 5.21173 2.51482 5.21173 2.76926V4.15387Z" fill="#C7C7D7"/>
<path d="M9.82688 1.38464H8.44223C7.67871 1.38464 7.05762 2.00574 7.05762 2.76926V4.15387C7.05762 4.9174 7.67871 5.53849 8.44223 5.53849H9.82688C10.5904 5.53849 11.2115 4.9174 11.2115 4.15387V2.76926C11.2115 2.00574 10.5904 1.38464 9.82688 1.38464ZM10.2884 4.15387C10.2884 4.40831 10.0815 4.61541 9.82688 4.61541H8.44223C8.18757 4.61541 7.98069 4.40831 7.98069 4.15387V2.76926C7.98069 2.51482 8.18757 2.30772 8.44223 2.30772H9.82688C10.0815 2.30772 10.2884 2.51482 10.2884 2.76926V4.15387Z" fill="#C7C7D7"/>
<path d="M4.75019 6.46161H3.36557C2.60205 6.46161 1.98096 7.0827 1.98096 7.84622V9.23088C1.98096 9.99435 2.60205 10.6155 3.36557 10.6155H4.75019C5.51371 10.6155 6.13481 9.99435 6.13481 9.23088V7.84622C6.13481 7.0827 5.51371 6.46161 4.75019 6.46161ZM5.21173 9.23088C5.21173 9.48528 5.00485 9.69241 4.75019 9.69241H3.36557C3.11092 9.69241 2.90403 9.48528 2.90403 9.23088V7.84622C2.90403 7.59179 3.11092 7.38469 3.36557 7.38469H4.75019C5.00485 7.38469 5.21173 7.59179 5.21173 7.84622V9.23088Z" fill="#C7C7D7"/>
<path d="M9.82688 6.46161H8.44223C7.67871 6.46161 7.05762 7.0827 7.05762 7.84622V9.23088C7.05762 9.99435 7.67871 10.6155 8.44223 10.6155H9.82688C10.5904 10.6155 11.2115 9.99435 11.2115 9.23088V7.84622C11.2115 7.0827 10.5904 6.46161 9.82688 6.46161ZM10.2884 9.23088C10.2884 9.48528 10.0815 9.69241 9.82688 9.69241H8.44223C8.18757 9.69241 7.98069 9.48528 7.98069 9.23088V7.84622C7.98069 7.59179 8.18757 7.38469 8.44223 7.38469H9.82688C10.0815 7.38469 10.2884 7.59179 10.2884 7.84622V9.23088Z" fill="#C7C7D7"/>
</g>
</g>
<defs>
<clipPath id="clip0_2052_28116">
<rect width="12" height="12" fill="white" transform="translate(0.208984)"/>
</clipPath>
<clipPath id="clip1_2052_28116">
<rect width="12" height="12" fill="white" transform="translate(0.208984)"/>
</clipPath>
</defs>
</svg>
