<svg width="26" height="24" viewBox="0 0 26 24" fill="none" xmlns="http://www.w3.org/2000/svg">
<rect x="0.97998" width="24.4475" height="24" rx="12" fill="#D9D9D9"/>
<rect x="0.97998" width="24.4475" height="24" rx="12" fill="url(#paint0_linear_2052_20854)"/>
<g filter="url(#filter0_dii_2052_20854)">
<path d="M20.1385 5.91406C18.1293 6.51891 16.2036 7.89809 14.5784 9.06104L14.3939 8.66951C14.0188 8.85359 13.6349 9.02599 13.245 9.18085L13.5426 9.82075L14.0605 10.9311L17.3495 17.9439H15.6143L12.8134 11.9889L12.2806 10.8551L11.7419 9.70679C11.5722 9.75939 11.3996 9.80906 11.227 9.85581C10.9799 9.92302 10.7388 9.98438 10.4977 10.037L11.2984 11.7697C9.32519 13.7022 7.60355 15.8673 6.17289 18.2156C5.89906 18.6685 5.52107 19.1331 5.48535 19.1974L7.00334 19.139L7.08371 19.0046C8.42147 16.8044 10.0146 14.7638 11.8311 12.9239L14.638 19.0046H19.3021L15.0904 10.1393C16.5786 9.03769 18.3318 7.7257 20.1504 7.13254L20.1385 5.91406Z" fill="url(#paint1_linear_2052_20854)"/>
<path d="M14.7351 5.33901C15.1248 5.10554 15.2879 4.61613 15.0453 4.232C15.0703 4.21026 15.2236 4.17062 15.2458 4.1679C16.0293 4.03744 16.6788 3.93034 17.4705 4.11244C17.6135 4.14263 17.7534 4.18537 17.8886 4.24017C17.9793 4.26654 18.0625 4.31319 18.1317 4.37646C18.2009 4.43972 18.2542 4.51787 18.2875 4.60478C18.3207 4.69168 18.333 4.78497 18.3234 4.87732C18.3138 4.96968 18.2824 5.05856 18.2319 5.13703C18.1679 5.26626 18.0899 5.38839 17.9993 5.50124C17.3127 6.31827 16.4783 7.00377 15.5381 7.52329C14.1207 8.36582 12.5565 8.88221 11.0006 9.39316C9.73562 9.83776 8.41112 10.0978 7.0693 10.165C6.56843 10.1997 6.06509 10.1714 5.57153 10.0808C5.35555 10.0405 5.14902 9.96122 4.96244 9.84705C4.89261 9.81215 4.83066 9.76382 4.78025 9.70492C4.72984 9.64603 4.69202 9.57778 4.66903 9.50424C4.64604 9.4307 4.63834 9.35339 4.64642 9.27688C4.6545 9.20037 4.67821 9.12622 4.71607 9.05887C4.84764 8.7518 5.04169 8.47435 5.28637 8.24353C5.68863 7.87976 6.11905 7.54718 6.57373 7.24879C6.60282 7.21923 6.63836 7.19656 6.67768 7.18244C6.717 7.16831 6.75907 7.16313 6.80073 7.16727C6.89763 7.22979 6.87273 7.34122 6.89211 7.43906C6.96963 7.79238 7.09143 7.90379 7.46241 7.93369C7.82758 7.9543 8.19379 7.91853 8.54767 7.82769C9.54447 7.64844 10.5235 7.38472 11.474 7.03951C12.4639 6.61999 13.4223 6.13228 14.3421 5.58004C14.473 5.49735 14.6039 5.41759 14.7351 5.33901Z" fill="url(#paint2_linear_2052_20854)"/>
<path d="M7.16349 6.88095C7.08539 6.30225 7.04011 5.71972 7.02783 5.13609C7.02783 4.53817 7.32131 4.23922 7.94145 4.20389C8.3601 4.19707 8.77878 4.21338 9.19556 4.2528C10.5798 4.32346 10.303 4.40227 11.3605 3.47006C11.6568 3.19828 11.9142 2.92649 12.2409 2.65471C12.7309 2.27421 13.1877 2.31498 13.5698 2.79332C13.8771 3.18197 14.1567 3.58964 14.4613 3.98101C14.4928 4.01033 14.517 4.04655 14.5316 4.08671C14.5463 4.12688 14.5512 4.16988 14.5458 4.21222C14.5404 4.25456 14.5249 4.29508 14.5006 4.33046C14.4763 4.36584 14.4439 4.39511 14.4059 4.41589C13.9217 4.8242 13.3845 5.16782 12.8085 5.4378C11.8379 5.92963 10.8171 6.3195 9.76311 6.60101C9.04155 6.79833 8.29725 6.90429 7.54831 6.91628C7.41906 6.93671 7.28664 6.92455 7.16349 6.88095Z" fill="url(#paint3_linear_2052_20854)"/>
</g>
<defs>
<filter id="filter0_dii_2052_20854" x="4.19262" y="2.03789" width="16.4085" height="17.7003" filterUnits="userSpaceOnUse" color-interpolation-filters="sRGB">
<feFlood flood-opacity="0" result="BackgroundImageFix"/>
<feColorMatrix in="SourceAlpha" type="matrix" values="0 0 0 0 0 0 0 0 0 0 0 0 0 0 0 0 0 0 127 0" result="hardAlpha"/>
<feOffset dy="0.0901381"/>
<feGaussianBlur stdDeviation="0.225345"/>
<feComposite in2="hardAlpha" operator="out"/>
<feColorMatrix type="matrix" values="0 0 0 0 0 0 0 0 0 0 0 0 0 0 0 0 0 0 0.25 0"/>
<feBlend mode="normal" in2="BackgroundImageFix" result="effect1_dropShadow_2052_20854"/>
<feBlend mode="normal" in="SourceGraphic" in2="effect1_dropShadow_2052_20854" result="shape"/>
<feColorMatrix in="SourceAlpha" type="matrix" values="0 0 0 0 0 0 0 0 0 0 0 0 0 0 0 0 0 0 127 0" result="hardAlpha"/>
<feOffset dy="0.0901381"/>
<feGaussianBlur stdDeviation="0.225345"/>
<feComposite in2="hardAlpha" operator="arithmetic" k2="-1" k3="1"/>
<feColorMatrix type="matrix" values="0 0 0 0 0.191563 0 0 0 0 0.566946 0 0 0 0 0.94233 0 0 0 1 0"/>
<feBlend mode="normal" in2="shape" result="effect2_innerShadow_2052_20854"/>
<feColorMatrix in="SourceAlpha" type="matrix" values="0 0 0 0 0 0 0 0 0 0 0 0 0 0 0 0 0 0 127 0" result="hardAlpha"/>
<feOffset dy="0.0901381"/>
<feGaussianBlur stdDeviation="0.045069"/>
<feComposite in2="hardAlpha" operator="arithmetic" k2="-1" k3="1"/>
<feColorMatrix type="matrix" values="0 0 0 0 0 0 0 0 0 0.506307 0 0 0 0 0.920557 0 0 0 0.25 0"/>
<feBlend mode="normal" in2="effect2_innerShadow_2052_20854" result="effect3_innerShadow_2052_20854"/>
</filter>
<linearGradient id="paint0_linear_2052_20854" x1="13.2037" y1="0" x2="13.2037" y2="24" gradientUnits="userSpaceOnUse">
<stop stop-color="#003A9E"/>
<stop offset="0.295009" stop-color="#002980"/>
<stop offset="0.925008" stop-color="#000316"/>
</linearGradient>
<linearGradient id="paint1_linear_2052_20854" x1="12.8179" y1="5.91406" x2="12.8179" y2="19.1974" gradientUnits="userSpaceOnUse">
<stop offset="0.640009" stop-color="white"/>
<stop offset="1" stop-color="#012A8A"/>
</linearGradient>
<linearGradient id="paint2_linear_2052_20854" x1="11.4881" y1="1.64207" x2="11.4881" y2="12.8221" gradientUnits="userSpaceOnUse">
<stop offset="0.468418" stop-color="white"/>
<stop offset="1" stop-color="#012A8A"/>
</linearGradient>
<linearGradient id="paint3_linear_2052_20854" x1="10.7879" y1="2.39844" x2="13.0299" y2="9.02875" gradientUnits="userSpaceOnUse">
<stop offset="0.640009" stop-color="white"/>
<stop offset="1" stop-color="#012A8A"/>
</linearGradient>
</defs>
</svg>
