<svg width="17" height="16" viewBox="0 0 17 16" fill="none" xmlns="http://www.w3.org/2000/svg">
<g clip-path="url(#clip0_2052_22813)">
<g clip-path="url(#clip1_2052_22813)">
<g clip-path="url(#clip2_2052_22813)">
<path d="M16.7751 8.00008C16.7751 3.58176 13.1933 0 8.77499 0C4.35666 0 0.774902 3.58176 0.774902 8.00008C0.774902 12.4184 4.35666 16.0002 8.77499 16.0002C13.1933 16.0002 16.7751 12.4184 16.7751 8.00008Z" fill="#0E0E0E"/>
<path d="M13.3479 4.31451L7.53692 9.83948L6.86157 9.02837L13.3479 4.31451Z" fill="url(#paint0_linear_2052_22813)"/>
<path d="M7.3451 10.5211C7.82338 10.3436 8.06719 9.81193 7.88966 9.33364C7.71213 8.85536 7.18048 8.61155 6.70219 8.78908C6.22391 8.96662 5.9801 9.49826 6.15763 9.97655C6.33517 10.4548 6.86681 10.6986 7.3451 10.5211Z" fill="white" stroke="#2D2D30" stroke-width="0.186616"/>
<mask id="mask0_2052_22813" style="mask-type:luminance" maskUnits="userSpaceOnUse" x="1" y="0" width="15" height="9">
<path d="M15.9327 8.00012C15.9327 6.10173 15.1786 4.28109 13.8362 2.93872C12.4938 1.59636 10.6732 0.842224 8.77484 0.842224C6.87645 0.842224 5.05581 1.59635 3.71344 2.93872C2.37107 4.28109 1.61694 6.10173 1.61694 8.00012H3.76431C3.76431 6.67124 4.2922 5.3968 5.23187 4.45715C6.17152 3.51749 7.44596 2.98959 8.77484 2.98959C10.1037 2.98959 11.3781 3.51749 12.3178 4.45715C13.2574 5.3968 13.7854 6.67124 13.7854 8.00012H15.9327Z" fill="white"/>
</mask>
<g mask="url(#mask0_2052_22813)">
<path d="M15.9327 8.00012C15.9327 6.10173 15.1786 4.28109 13.8362 2.93872C12.4938 1.59636 10.6732 0.842224 8.77484 0.842224C6.87645 0.842224 5.05581 1.59635 3.71344 2.93872C2.37107 4.28109 1.61694 6.10173 1.61694 8.00012H3.76431C3.76431 6.67124 4.2922 5.3968 5.23187 4.45715C6.17152 3.51749 7.44596 2.98959 8.77484 2.98959C10.1037 2.98959 11.3781 3.51749 12.3178 4.45715C13.2574 5.3968 13.7854 6.67124 13.7854 8.00012H15.9327Z" stroke="#3772FE" stroke-width="5.54876"/>
</g>
</g>
</g>
</g>
<defs>
<linearGradient id="paint0_linear_2052_22813" x1="13.0022" y1="4.50006" x2="7.5022" y2="9.00006" gradientUnits="userSpaceOnUse">
<stop stop-color="white"/>
<stop offset="1" stop-color="#3772FE"/>
</linearGradient>
<clipPath id="clip0_2052_22813">
<rect width="16" height="16" fill="white" transform="translate(0.774902)"/>
</clipPath>
<clipPath id="clip1_2052_22813">
<rect width="16" height="16" fill="white" transform="translate(0.774902)"/>
</clipPath>
<clipPath id="clip2_2052_22813">
<rect width="16" height="16" fill="white" transform="translate(0.774902)"/>
</clipPath>
</defs>
</svg>
