<svg width="17" height="16" viewBox="0 0 17 16" fill="none" xmlns="http://www.w3.org/2000/svg">
<path d="M8.24479 13.6481C8.73474 13.9761 9.32391 14.1673 9.95775 14.1673C11.366 14.1673 12.5538 13.2232 12.9226 11.9334C13.7962 11.5751 14.4115 10.7162 14.4115 9.71361C14.4115 9.04258 14.1359 8.43592 13.6917 8.00065C14.1359 7.56538 14.4115 6.95872 14.4115 6.28769C14.4115 5.051 13.4754 4.03296 12.2731 3.90345C11.9737 2.7143 10.8972 1.83398 9.61516 1.83398C9.11595 1.83398 8.64792 1.96745 8.24479 2.20065M8.24479 13.6481C7.75485 13.9761 7.16568 14.1673 6.53183 14.1673C5.12356 14.1673 3.93579 13.2232 3.56697 11.9334C2.6934 11.5751 2.07812 10.7162 2.07812 9.71361C2.07812 9.04258 2.35373 8.43592 2.79792 8.00065C2.35373 7.56538 2.07812 6.95872 2.07812 6.28769C2.07812 5.051 3.01421 4.03296 4.21649 3.90345C4.51587 2.7143 5.59234 1.83398 6.87442 1.83398C7.37363 1.83398 7.84167 1.96745 8.24479 2.20065M8.24479 13.6481L8.24479 2.20065M6.07812 9.16732C7.27474 9.16732 8.24479 10.1374 8.24479 11.334M10.4115 6.83398C9.21484 6.83398 8.24479 5.86393 8.24479 4.66732" stroke="#3772FE" stroke-linecap="round"/>
</svg>
