<svg width="16" height="16" viewBox="0 0 16 16" fill="none" xmlns="http://www.w3.org/2000/svg">
<path d="M14.4331 13.2502C13.4812 11.6046 12.0143 10.4246 10.3025 9.86524C11.1492 9.36115 11.8071 8.59303 12.1751 7.67886C12.5431 6.76468 12.6008 5.75499 12.3394 4.80483C12.078 3.85468 11.5119 3.01661 10.7281 2.41931C9.94427 1.82202 8.98605 1.49854 8.0006 1.49854C7.01514 1.49854 6.05693 1.82202 5.27311 2.41931C4.4893 3.01661 3.92322 3.85468 3.66181 4.80483C3.4004 5.75499 3.45811 6.76468 3.82609 7.67886C4.19406 8.59303 4.85195 9.36115 5.69872 9.86524C3.98685 10.424 2.51997 11.604 1.5681 13.2502C1.53319 13.3072 1.51004 13.3705 1.5 13.4365C1.48997 13.5025 1.49326 13.5699 1.50967 13.6346C1.52609 13.6993 1.55531 13.7601 1.59559 13.8133C1.63588 13.8666 1.68642 13.9112 1.74424 13.9446C1.80205 13.978 1.86597 13.9995 1.93223 14.0078C1.99848 14.0161 2.06572 14.011 2.12998 13.9929C2.19425 13.9748 2.25423 13.944 2.3064 13.9023C2.35857 13.8606 2.40186 13.8089 2.43372 13.7502C3.61122 11.7152 5.69247 10.5002 8.0006 10.5002C10.3087 10.5002 12.39 11.7152 13.5675 13.7502C13.5993 13.8089 13.6426 13.8606 13.6948 13.9023C13.747 13.944 13.8069 13.9748 13.8712 13.9929C13.9355 14.011 14.0027 14.0161 14.069 14.0078C14.1352 13.9995 14.1991 13.978 14.257 13.9446C14.3148 13.9112 14.3653 13.8666 14.4056 13.8133C14.4459 13.7601 14.4751 13.6993 14.4915 13.6346C14.5079 13.5699 14.5112 13.5025 14.5012 13.4365C14.4912 13.3705 14.468 13.3072 14.4331 13.2502ZM4.5006 6.00024C4.5006 5.308 4.70587 4.63131 5.09045 4.05574C5.47504 3.48017 6.02166 3.03156 6.6612 2.76666C7.30075 2.50175 8.00448 2.43244 8.68341 2.56749C9.36235 2.70254 9.98599 3.03588 10.4755 3.52536C10.965 4.01485 11.2983 4.63849 11.4333 5.31742C11.5684 5.99635 11.4991 6.70009 11.2342 7.33963C10.9693 7.97917 10.5207 8.52579 9.94509 8.91038C9.36952 9.29496 8.69283 9.50024 8.0006 9.50024C7.07264 9.49924 6.18298 9.13018 5.52682 8.47401C4.87066 7.81785 4.50159 6.92819 4.5006 6.00024Z" fill="#3772FE"/>
</svg>
