<svg width="17" height="16" viewBox="0 0 17 16" fill="none" xmlns="http://www.w3.org/2000/svg">
<path d="M9.91859 1.55052C9.83451 1.50955 9.74062 1.49299 9.6476 1.50271C9.55457 1.51243 9.46614 1.54805 9.39234 1.60552L5.02734 4.9999H2.19922C1.934 4.9999 1.67965 5.10526 1.49211 5.29279C1.30458 5.48033 1.19922 5.73468 1.19922 5.9999V9.9999C1.19922 10.2651 1.30458 10.5195 1.49211 10.707C1.67965 10.8945 1.934 10.9999 2.19922 10.9999H5.02734L9.39234 14.3943C9.46621 14.4517 9.5547 14.4872 9.64777 14.4969C9.74083 14.5065 9.83472 14.4898 9.91878 14.4487C10.0028 14.4077 10.0737 14.3438 10.1233 14.2645C10.1728 14.1851 10.1991 14.0935 10.1992 13.9999V1.9999C10.1992 1.90623 10.1729 1.81444 10.1233 1.73499C10.0737 1.65554 10.0028 1.59162 9.91859 1.55052ZM2.19922 5.9999H4.69922V9.9999H2.19922V5.9999ZM9.19922 12.9774L5.69922 10.2555V5.74427L9.19922 3.0224V12.9774ZM12.5742 6.3474C12.9764 6.80395 13.1983 7.39148 13.1983 7.9999C13.1983 8.60832 12.9764 9.19585 12.5742 9.6524C12.4859 9.74946 12.3629 9.8079 12.2319 9.81511C12.1008 9.82231 11.9722 9.77771 11.8738 9.69091C11.7753 9.60411 11.7149 9.48209 11.7057 9.35118C11.6964 9.22026 11.739 9.09095 11.8242 8.99115C12.0654 8.71725 12.1984 8.36483 12.1984 7.9999C12.1984 7.63496 12.0654 7.28254 11.8242 7.00865C11.739 6.90885 11.6964 6.77954 11.7057 6.64862C11.7149 6.51771 11.7753 6.39568 11.8738 6.30889C11.9722 6.22209 12.1008 6.17748 12.2319 6.18469C12.3629 6.19189 12.4859 6.25033 12.5742 6.3474ZM15.6992 7.9999C15.6999 9.23003 15.2466 10.4171 14.4261 11.3336C14.337 11.43 14.2136 11.4875 14.0826 11.4937C13.9515 11.4999 13.8232 11.4544 13.7254 11.3668C13.6276 11.2793 13.5682 11.1568 13.5599 11.0259C13.5516 10.8949 13.5951 10.7659 13.6811 10.6668C14.337 9.93342 14.6996 8.98407 14.6996 8.00021C14.6996 7.01635 14.337 6.067 13.6811 5.33365C13.6361 5.28494 13.6012 5.22775 13.5785 5.16543C13.5558 5.10311 13.5457 5.03689 13.5489 4.97063C13.552 4.90438 13.5683 4.83941 13.5968 4.77951C13.6253 4.71961 13.6654 4.66598 13.7148 4.62174C13.7642 4.5775 13.822 4.54354 13.8846 4.52183C13.9473 4.50012 14.0137 4.4911 14.0799 4.49529C14.1461 4.49948 14.2108 4.5168 14.2702 4.54624C14.3297 4.57568 14.3826 4.61665 14.4261 4.66677C15.2468 5.58291 15.7002 6.76991 15.6992 7.9999Z" fill="white"/>
</svg>
