<svg width="16" height="16" viewBox="0 0 16 16" fill="none" xmlns="http://www.w3.org/2000/svg">
<path d="M7.82141 1.76758C6.58892 1.76758 5.38411 2.13305 4.35934 2.81779C3.33456 3.50252 2.53585 4.47576 2.0642 5.61443C1.59254 6.75309 1.46914 8.00605 1.70958 9.21486C1.95003 10.4237 2.54353 11.534 3.41503 12.4055C4.28653 13.277 5.39689 13.8705 6.60569 14.111C7.8145 14.3514 9.06746 14.228 10.2061 13.7564C11.3448 13.2847 12.318 12.486 13.0028 11.4612C13.6875 10.4364 14.053 9.23163 14.053 7.99914C14.051 6.34702 13.3939 4.76313 12.2256 3.5949C11.0574 2.42668 9.47353 1.76952 7.82141 1.76758ZM7.82141 13.4976C6.73392 13.4976 5.67085 13.1751 4.76664 12.5709C3.86243 11.9667 3.15768 11.108 2.74152 10.1033C2.32535 9.09859 2.21646 7.99304 2.42862 6.92645C2.64078 5.85986 3.16446 4.88013 3.93343 4.11116C4.7024 3.34219 5.68212 2.81851 6.74872 2.60635C7.81531 2.3942 8.92086 2.50308 9.92557 2.91925C10.9303 3.33541 11.789 4.04016 12.3932 4.94437C12.9974 5.84859 13.3198 6.91165 13.3198 7.99914C13.3182 9.45692 12.7384 10.8545 11.7076 11.8853C10.6768 12.9161 9.27919 13.496 7.82141 13.4976ZM11.6092 7.99914C11.6092 8.09636 11.5706 8.1896 11.5019 8.25834C11.4331 8.32708 11.3399 8.3657 11.2427 8.3657H7.82141C7.72419 8.3657 7.63095 8.32708 7.56221 8.25834C7.49347 8.1896 7.45485 8.09636 7.45485 7.99914V4.57789C7.45485 4.48067 7.49347 4.38744 7.56221 4.31869C7.63095 4.24995 7.72419 4.21133 7.82141 4.21133C7.91863 4.21133 8.01186 4.24995 8.08061 4.31869C8.14935 4.38744 8.18797 4.48067 8.18797 4.57789V7.63258H11.2427C11.3399 7.63258 11.4331 7.6712 11.5019 7.73994C11.5706 7.80869 11.6092 7.90192 11.6092 7.99914Z" fill="#3772FE"/>
</svg>
