<svg width="16" height="16" viewBox="0 0 16 16" fill="none" xmlns="http://www.w3.org/2000/svg">
<path d="M2.75 8C2.75 9.03835 3.05791 10.0534 3.63478 10.9167C4.21166 11.7801 5.0316 12.453 5.99091 12.8504C6.95022 13.2477 8.00582 13.3517 9.02422 13.1491C10.0426 12.9466 10.9781 12.4465 11.7123 11.7123C12.4465 10.9781 12.9466 10.0426 13.1491 9.02422C13.3517 8.00582 13.2477 6.95022 12.8504 5.99091C12.453 5.0316 11.7801 4.21166 10.9167 3.63478C10.0534 3.05791 9.03835 2.75 8 2.75C6.53231 2.75552 5.12357 3.32821 4.06833 4.34833L2.75 5.66667" stroke="#3772FE" stroke-width="1.16667" stroke-linecap="round" stroke-linejoin="round"/>
<path d="M2.75 2.75V5.66667H5.66667" stroke="#3772FE" stroke-width="1.16667" stroke-linecap="round" stroke-linejoin="round"/>
<path d="M8 5.08447V8.00114L10.3333 9.16781" stroke="#3772FE" stroke-width="1.16667" stroke-linecap="round" stroke-linejoin="round"/>
</svg>
