<svg width="311" height="2460" viewBox="0 0 311 2460" fill="none" xmlns="http://www.w3.org/2000/svg">
<path d="M1 13.5229L2 2450L181.5 2449.5C184.7 2449.9 185.5 2452 185.5 2453C185.1 2458.6 190 2459.33 192.5 2459H294.5C307.7 2459 310.333 2449.67 310 2445V2440V10.5234H129.5C128.667 10.5233 127 9.52294 127 5.52294C127 1.52294 122 0.85627 119.5 1.02294H22.5C7 1.02294 1 1.02294 1 13.5229Z" fill="#000714" fill-opacity="0.5" stroke="#0C3766"/>
<rect x="194" y="2442" width="13.1525" height="3" fill="#0F5181"/>
<rect x="215.375" y="2442" width="6.57627" height="3" fill="#0F5181"/>
<rect x="272.914" y="2442" width="6.57627" height="3" fill="#0F5181"/>
<rect x="284.422" y="2442" width="6.57627" height="3" fill="#0F5181"/>
<rect x="230.172" y="2442" width="34.5254" height="3" fill="#0F5181"/>
<rect x="16" y="10" width="13.1525" height="3" fill="#0F5181"/>
<rect x="37.375" y="10" width="6.57627" height="3" fill="#0F5181"/>
<rect x="94.9141" y="10" width="6.57627" height="3" fill="#0F5181"/>
<rect x="106.422" y="10" width="6.57627" height="3" fill="#0F5181"/>
<rect x="52.1719" y="10" width="34.5254" height="3" fill="#0F5181"/>
</svg>
