<svg width="173" height="54" viewBox="0 0 173 54" fill="none" xmlns="http://www.w3.org/2000/svg">
<g id="Frame 1261157691">
<g id="Final Copy">
<rect width="54" height="54" rx="27" fill="url(#paint0_linear_2001_2078)"/>
<g id="Group 52" filter="url(#filter0_dii_2001_2078)">
<path id="Vector" d="M42.9683 16.3115C38.6677 17.6304 34.5454 20.6377 31.0666 23.1735L30.6716 22.3197C29.8688 22.7211 29.0469 23.097 28.2123 23.4347L28.8494 24.83L29.958 27.2511L36.9984 42.5423H33.2839L27.2885 29.5575L26.148 27.0855L24.9948 24.5815C24.6317 24.6962 24.2621 24.8045 23.8926 24.9064C23.3638 25.053 22.8477 25.1868 22.3316 25.3015L24.0455 29.0797C19.8217 33.2935 16.1365 38.0145 13.074 43.1348C12.4879 44.1223 11.6788 45.1354 11.6023 45.2756L14.8517 45.1481L15.0237 44.8551C17.8873 40.0576 21.2974 35.6083 25.1859 31.5963L31.1941 44.8551H41.1779L32.1626 25.5245C35.3482 23.1225 39.1009 20.2618 42.9938 18.9684L42.9683 16.3115Z" fill="url(#paint1_linear_2001_2078)"/>
<g id="CzgE9k">
<path id="Vector_2" d="M32.8712 14.1718C32.6421 13.6434 32.3747 13.1324 32.0712 12.6429C32.1245 12.5955 32.1601 12.5362 32.2075 12.5303C33.8846 12.2458 35.5677 11.9851 37.2625 12.3821C37.5686 12.448 37.8681 12.5412 38.1574 12.6607C38.3515 12.7182 38.5296 12.8199 38.6777 12.9578C38.8259 13.0958 38.94 13.2662 39.0112 13.4557C39.0824 13.6452 39.1088 13.8486 39.0881 14.05C39.0675 14.2513 39.0004 14.4452 38.8922 14.6163C38.7553 14.898 38.5884 15.1643 38.3945 15.4104C36.9248 17.1919 35.1387 18.6866 33.1261 19.8195C30.0919 21.6566 26.7436 22.7825 23.4131 23.8967C20.7054 24.8661 17.8702 25.4331 14.9979 25.5797C13.9258 25.6552 12.8484 25.5935 11.7919 25.396C11.3295 25.3081 10.8874 25.1353 10.4881 24.8864C10.3386 24.8103 10.206 24.7049 10.0981 24.5765C9.99016 24.448 9.9092 24.2992 9.85999 24.1389C9.81078 23.9785 9.7943 23.8099 9.81159 23.6431C9.82889 23.4763 9.87963 23.3146 9.96069 23.1678C10.2423 22.4982 10.6577 21.8932 11.1814 21.3899C12.0425 20.5967 12.9639 19.8715 13.9371 19.2209C13.9994 19.1565 14.0755 19.107 14.1596 19.0762C14.2438 19.0454 14.3339 19.0341 14.423 19.0432C14.6305 19.1795 14.5772 19.4224 14.6187 19.6358C14.7846 20.4062 15.0453 20.6491 15.8394 20.7143C16.6211 20.7592 17.405 20.6813 18.1625 20.4832C20.2962 20.0923 22.392 19.5173 24.4264 18.7646C26.5454 17.8498 28.597 16.7864 30.5659 15.5822C31.3304 15.0904 32.0949 14.6459 32.8712 14.1718Z" fill="url(#paint2_linear_2001_2078)"/>
<path id="Vector_3" d="M15.1986 18.4166C15.0314 17.1548 14.9345 15.8846 14.9082 14.612C14.9082 13.3082 15.5364 12.6564 16.8639 12.5793C17.76 12.5645 18.6562 12.6 19.5484 12.686C22.5115 12.84 21.9189 13.0119 24.1827 10.9792C24.8168 10.3866 25.3679 9.79399 26.0672 9.20137C27.1161 8.37171 28.0939 8.46061 28.9118 9.50361C29.5696 10.3511 30.1681 11.24 30.82 12.0934C30.8876 12.1573 30.9392 12.2362 30.9707 12.3238C31.0021 12.4114 31.0124 12.5052 31.0009 12.5975C30.9894 12.6898 30.9562 12.7782 30.9042 12.8553C30.8522 12.9325 30.7827 12.9963 30.7015 13.0416C29.6649 13.9319 28.5151 14.6812 27.2821 15.2698C25.2044 16.3423 23.0194 17.1924 20.7633 17.8062C19.2187 18.2365 17.6255 18.4675 16.0223 18.4936C15.7457 18.5382 15.4622 18.5117 15.1986 18.4166Z" fill="url(#paint3_linear_2001_2078)"/>
</g>
</g>
</g>
<g id="Frame 1261157467" filter="url(#filter1_i_2001_2078)">
<g id="Group 52_2" filter="url(#filter2_d_2001_2078)">
<path id="Vector_4" d="M50.9175 41.9915C50.0763 41.9958 49.2394 41.8714 48.4358 41.6227C47.6552 41.383 46.9211 41.0124 46.2648 40.5267C45.597 40.0288 45.0166 39.4234 44.5472 38.7352C44.0332 37.9776 43.642 37.1436 43.3879 36.2641L46.9709 34.8573C47.1986 35.8063 47.6751 36.6774 48.3514 37.381C48.6929 37.7168 49.0995 37.979 49.5464 38.1512C49.9932 38.3234 50.4706 38.402 50.949 38.3822C51.3357 38.3833 51.7206 38.3301 52.0925 38.2242C52.4426 38.128 52.7751 37.9768 53.0778 37.7762C53.3625 37.5834 53.5988 37.3274 53.7681 37.0281C53.9428 36.7048 54.0299 36.3416 54.021 35.9742C54.0276 35.6254 53.9612 35.279 53.826 34.9574C53.672 34.6293 53.4449 34.3408 53.1621 34.1142C52.7908 33.8111 52.3838 33.5545 51.9502 33.3503C51.3474 33.0636 50.7301 32.8086 50.1007 32.5863L48.8625 32.1383C48.2881 31.9366 47.7341 31.6808 47.208 31.3744C46.6564 31.0588 46.1496 30.6707 45.7011 30.2205C45.2427 29.7611 44.8666 29.2264 44.5893 28.6397C44.2875 27.9919 44.1379 27.2835 44.152 26.5689C44.1446 25.8064 44.3028 25.0513 44.6157 24.3559C44.9276 23.6676 45.3798 23.0521 45.9434 22.5487C46.543 22.0149 47.2411 21.6032 47.9984 21.3367C48.8549 21.037 49.7572 20.8889 50.6646 20.8994C51.5601 20.8807 52.4519 21.0198 53.2991 21.3104C53.9821 21.5542 54.6196 21.9104 55.1854 22.3642C55.6782 22.7566 56.1021 23.2286 56.4394 23.7606C56.7337 24.2088 56.9709 24.692 57.1455 25.199L53.7891 26.6058C53.5775 26.0145 53.2141 25.4894 52.7353 25.0831C52.1631 24.6089 51.433 24.368 50.6909 24.4087C49.9604 24.3819 49.24 24.5845 48.6307 24.9882C48.3781 25.1497 48.1706 25.3727 48.0278 25.6363C47.8849 25.8998 47.8114 26.1954 47.814 26.4952C47.816 26.7956 47.8886 27.0914 48.0258 27.3586C48.1631 27.6259 48.3613 27.8571 48.6043 28.0337C49.3673 28.5766 50.2148 28.9896 51.1124 29.2562L52.3823 29.683C53.1456 29.944 53.8859 30.2683 54.5953 30.6524C55.234 30.998 55.8153 31.4406 56.3183 31.9644C56.7931 32.4683 57.1669 33.0586 57.4195 33.7032C57.6846 34.4195 57.8133 35.179 57.7988 35.9426C57.8249 36.8904 57.6053 37.829 57.1613 38.6668C56.7611 39.3996 56.2098 40.0389 55.5437 40.5425C54.871 41.036 54.1164 41.407 53.3149 41.6385C52.5369 41.871 51.7294 41.9899 50.9175 41.9915Z" fill="url(#paint4_linear_2001_2078)"/>
<path id="Vector_5" d="M60.1106 27.718H63.583V29.383H63.8042C64.1929 28.7573 64.7376 28.2434 65.3849 27.8918C66.1929 27.4559 67.1018 27.2414 68.0195 27.2701C68.889 27.2612 69.7501 27.4409 70.5434 27.797C71.3375 28.164 72.0532 28.6812 72.651 29.3199C73.2793 29.9968 73.7728 30.7871 74.1053 31.6488C74.4656 32.5939 74.6444 33.5985 74.6322 34.6099C74.6439 35.6213 74.4651 36.6259 74.1053 37.5712C73.7727 38.4312 73.2791 39.2198 72.651 39.8948C72.0548 40.5367 71.3388 41.0559 70.5434 41.4229C69.7501 41.779 68.889 41.9588 68.0195 41.9498C67.1018 41.9785 66.1929 41.7639 65.3849 41.328C64.7361 40.9762 64.191 40.4602 63.8042 39.8316H63.583L63.8042 41.8075V47.6035H60.1159L60.1106 27.718ZM67.2765 38.5775C67.7559 38.5787 68.2307 38.4837 68.6728 38.2983C69.11 38.1126 69.5072 37.8442 69.8426 37.5079C70.1933 37.1507 70.4708 36.7283 70.6593 36.2645C70.8719 35.7465 70.9776 35.1909 70.9701 34.631C70.9767 34.0695 70.871 33.5125 70.6593 32.9924C70.4695 32.5308 70.1921 32.1103 69.8426 31.7541C69.5072 31.4178 69.11 31.1494 68.6728 30.9637C68.2315 30.7759 67.7562 30.6809 67.2765 30.6845C66.7984 30.681 66.3242 30.7704 65.8803 30.9479C65.4406 31.1242 65.0423 31.3897 64.7105 31.7277C64.3597 32.083 64.0823 32.5038 63.8938 32.966C63.6773 33.4939 63.5715 34.0606 63.583 34.631C63.5715 35.2014 63.6773 35.7682 63.8938 36.2961C64.0823 36.7584 64.3597 37.179 64.7105 37.5343C65.0439 37.869 65.4419 38.1325 65.8803 38.3088C66.3239 38.4881 66.7981 38.5794 67.2765 38.5775Z" fill="url(#paint5_linear_2001_2078)"/>
<path id="Vector_6" d="M85.2677 40.0752H85.0411C84.5932 40.6114 84.0589 41.0691 83.4604 41.4294C82.7425 41.8314 81.9272 42.0264 81.1051 41.9931C80.4166 41.9986 79.7328 41.8791 79.0871 41.6401C78.4824 41.4187 77.9234 41.0883 77.4378 40.6653C76.9682 40.2529 76.5927 39.7445 76.3366 39.1743C76.0691 38.5706 75.9343 37.9165 75.9414 37.2562C75.9309 36.5872 76.0771 35.925 76.3682 35.3225C76.6493 34.7476 77.0542 34.2419 77.5538 33.8419C78.084 33.4171 78.6902 33.097 79.34 32.8987C80.0672 32.6763 80.8241 32.5662 81.5846 32.5721C82.3331 32.5588 83.0807 32.6294 83.8134 32.7828C84.3017 32.8979 84.7822 33.044 85.2519 33.2202V32.7986C85.2576 32.4485 85.1815 32.1018 85.0297 31.7862C84.8779 31.4706 84.6545 31.1948 84.3772 30.9808C83.7625 30.4898 82.9928 30.2338 82.2064 30.2589C81.578 30.2579 80.9579 30.4025 80.3948 30.6813C79.8316 30.9602 79.3407 31.3656 78.9606 31.866L76.284 30.0324C76.9955 29.1299 77.9109 28.4092 78.9551 27.9292C79.9993 27.4493 81.1424 27.2238 82.2907 27.2714C84.4334 27.2714 86.0686 27.7737 87.1962 28.7784C88.3238 29.783 88.8876 31.2742 88.8876 33.2518V41.5401H85.2519L85.2677 40.0752ZM85.2677 35.9284C84.8369 35.7246 84.3891 35.5589 83.9293 35.4332C83.435 35.3089 82.9268 35.2488 82.4171 35.2541C81.6901 35.2067 80.9687 35.4093 80.3728 35.8283C80.1501 35.9938 79.9692 36.2092 79.8448 36.4571C79.7203 36.7051 79.6557 36.9788 79.6561 37.2562C79.6481 37.5218 79.7072 37.7851 79.8278 38.0218C79.9485 38.2585 80.1268 38.4609 80.3464 38.6104C80.8024 38.9524 81.3571 39.1373 81.9271 39.1373C82.3922 39.1426 82.8534 39.051 83.2813 38.8686C83.6752 38.7042 84.0332 38.4643 84.3351 38.1625C84.6252 37.8737 84.8545 37.5297 85.0095 37.1509C85.1787 36.7655 85.2666 36.3493 85.2677 35.9284Z" fill="url(#paint6_linear_2001_2078)"/>
<path id="Vector_7" d="M104.527 38.0152C103.941 39.167 103.073 40.1513 102.003 40.8762C100.8 41.6537 99.3879 42.0435 97.9565 41.9932C96.9481 42.011 95.9458 41.832 95.0058 41.4663C94.1387 41.1151 93.3518 40.5918 92.6927 39.9278C92.0378 39.2584 91.5205 38.4672 91.17 37.5989C90.8043 36.6608 90.6253 35.6602 90.643 34.6534C90.6258 33.6416 90.8047 32.6361 91.17 31.6923C91.5166 30.8219 92.0344 30.0299 92.6927 29.3633C93.3554 28.7076 94.1416 28.1901 95.0058 27.8406C95.9458 27.4749 96.9481 27.2959 97.9565 27.3137C99.3807 27.2636 100.786 27.6476 101.987 28.4148C103.047 29.1092 103.88 30.0983 104.385 31.2602L101.002 32.6723C100.727 32.0885 100.304 31.587 99.7743 31.218C99.2109 30.8737 98.5584 30.7033 97.8985 30.728C97.4239 30.7234 96.9536 30.8185 96.518 31.0073C96.0883 31.1924 95.6997 31.461 95.3747 31.7976C95.0331 32.152 94.7693 32.5736 94.6001 33.0358C94.4046 33.5597 94.3081 34.1154 94.3156 34.6745C94.3076 35.232 94.4041 35.7861 94.6001 36.308C94.7679 36.7724 95.0319 37.196 95.3747 37.5514C95.6997 37.8881 96.0883 38.1567 96.518 38.3418C96.9543 38.5281 97.4241 38.6231 97.8985 38.6211C98.5894 38.6411 99.271 38.4579 99.8587 38.0942C100.418 37.7217 100.862 37.1995 101.139 36.5872L104.527 38.0152Z" fill="url(#paint7_linear_2001_2078)"/>
<path id="Vector_8" d="M119.438 38.2125C118.817 39.3222 117.932 40.2615 116.862 40.9471C115.671 41.6756 114.294 42.0418 112.899 42.0009C111.901 42.0172 110.909 41.8382 109.98 41.474C109.109 41.1217 108.317 40.5986 107.651 39.9355C106.988 39.2696 106.465 38.4778 106.113 37.6066C105.747 36.6684 105.568 35.6678 105.586 34.6611C105.577 33.6911 105.756 32.7286 106.113 31.8264C106.451 30.9561 106.958 30.1611 107.604 29.4868C108.252 28.819 109.023 28.2824 109.875 27.9061C110.786 27.5044 111.772 27.3032 112.767 27.316C113.78 27.2923 114.787 27.4715 115.729 27.843C116.555 28.1851 117.296 28.7049 117.899 29.3657C118.493 30.034 118.944 30.8155 119.227 31.663C119.534 32.5909 119.685 33.5629 119.675 34.5399V34.8824C119.668 34.9859 119.668 35.0898 119.675 35.1933C119.655 35.2939 119.646 35.3964 119.649 35.4989H109.237C109.296 36.0098 109.456 36.504 109.706 36.9532C109.929 37.3457 110.226 37.691 110.581 37.9701C110.919 38.2381 111.305 38.4384 111.719 38.5602C112.131 38.6818 112.559 38.7439 112.989 38.7446C113.734 38.7746 114.471 38.572 115.096 38.165C115.64 37.7901 116.089 37.2941 116.408 36.716L119.438 38.2125ZM116.082 32.8538C116.055 32.5674 115.974 32.2885 115.845 32.0318C115.691 31.7152 115.48 31.4294 115.223 31.1887C114.927 30.911 114.582 30.6912 114.206 30.5407C113.744 30.3612 113.252 30.2752 112.757 30.2877C111.998 30.2687 111.256 30.5063 110.649 30.9622C110.029 31.4356 109.583 32.1006 109.379 32.8538H116.082Z" fill="url(#paint8_linear_2001_2078)"/>
<path id="Vector_9" d="M133.486 41.9915C132.645 41.9966 131.808 41.8722 131.004 41.6227C130.222 41.3831 129.486 41.0125 128.828 40.5267C128.161 40.0274 127.581 39.4223 127.11 38.7352C126.596 37.9776 126.205 37.1436 125.951 36.2641L129.534 34.8573C129.764 35.8068 130.242 36.6779 130.92 37.381C131.26 37.7167 131.666 37.9787 132.112 38.151C132.558 38.3232 133.035 38.4019 133.512 38.3822C133.899 38.3833 134.284 38.3301 134.656 38.2241C135.006 38.1291 135.339 37.9778 135.641 37.7762C135.926 37.5834 136.162 37.3274 136.331 37.0281C136.506 36.7048 136.593 36.3416 136.584 35.9742C136.591 35.6254 136.524 35.279 136.389 34.9573C136.235 34.6293 136.008 34.3408 135.725 34.1142C135.354 33.8111 134.947 33.5545 134.513 33.3503C133.911 33.0627 133.294 32.8077 132.664 32.5863L131.426 32.1383C130.853 31.9375 130.3 31.6817 129.777 31.3744C129.222 31.0602 128.714 30.672 128.264 30.2205C127.808 29.7595 127.432 29.2251 127.153 28.6397C126.853 27.9912 126.703 27.2833 126.715 26.5689C126.708 25.8064 126.866 25.0513 127.179 24.3559C127.491 23.6676 127.943 23.0521 128.507 22.5487C129.108 22.0148 129.808 21.6032 130.567 21.3367C131.421 21.0365 132.322 20.8884 133.228 20.8994C134.123 20.8807 135.015 21.0198 135.862 21.3104C136.546 21.5555 137.185 21.9115 137.754 22.3642C138.245 22.758 138.669 23.2298 139.008 23.7606C139.298 24.2112 139.535 24.6939 139.714 25.199L136.358 26.6058C136.146 26.0148 135.782 25.4898 135.304 25.0831C134.732 24.6084 134.002 24.3675 133.259 24.4087C132.529 24.3819 131.808 24.5845 131.199 24.9882C130.947 25.1497 130.739 25.3727 130.596 25.6363C130.453 25.8998 130.38 26.1954 130.382 26.4952C130.384 26.7956 130.457 27.0914 130.594 27.3586C130.732 27.6259 130.93 27.8571 131.173 28.0337C131.936 28.5755 132.784 28.9885 133.681 29.2562L134.951 29.683C135.715 29.943 136.455 30.2673 137.164 30.6524C137.802 30.998 138.384 31.4406 138.887 31.9644C139.363 32.4669 139.737 33.0576 139.988 33.7032C140.253 34.4195 140.382 35.179 140.367 35.9426C140.392 36.8897 140.175 37.8276 139.735 38.6668C139.333 39.3999 138.78 40.0391 138.112 40.5425C137.439 41.036 136.685 41.407 135.883 41.6385C135.105 41.871 134.298 41.9899 133.486 41.9915Z" fill="url(#paint9_linear_2001_2078)"/>
<path id="Vector_10" d="M142.655 27.7183H146.133V29.3832H146.359C146.745 28.7552 147.291 28.2406 147.94 27.892C148.748 27.4549 149.657 27.2404 150.575 27.2703C151.444 27.2624 152.305 27.4421 153.099 27.7972C153.892 28.1656 154.607 28.6826 155.206 29.3201C155.834 29.997 156.328 30.7873 156.66 31.649C157.023 32.5934 157.202 33.5985 157.187 34.6101C157.202 35.6217 157.023 36.6268 156.66 37.5714C156.328 38.4314 155.834 39.22 155.206 39.895C154.609 40.5362 153.894 41.0553 153.099 41.4231C152.305 41.7783 151.444 41.958 150.575 41.95C149.657 41.98 148.748 41.7653 147.94 41.3282C147.289 40.9792 146.743 40.4627 146.359 39.8319H146.133L146.359 41.8078V47.6037H142.671L142.655 27.7183ZM149.816 38.5777C150.295 38.5789 150.77 38.4839 151.212 38.2985C151.649 38.1128 152.047 37.8444 152.382 37.5081C152.733 37.1509 153.01 36.7285 153.199 36.2647C153.414 35.7474 153.519 35.1913 153.51 34.6312C153.519 34.0695 153.413 33.5118 153.199 32.9926C153.009 32.531 152.732 32.1105 152.382 31.7543C152.047 31.418 151.649 31.1496 151.212 30.964C150.771 30.7859 150.297 30.6998 149.821 30.7111C149.343 30.7075 148.869 30.797 148.425 30.9745C147.985 31.1508 147.587 31.4163 147.255 31.7543C146.904 32.1096 146.627 32.5303 146.438 32.9926C146.225 33.5212 146.119 34.0874 146.128 34.6576C146.119 35.2278 146.225 35.7939 146.438 36.3226C146.627 36.7848 146.904 37.2056 147.255 37.5609C147.589 37.8956 147.987 38.1591 148.425 38.3354C148.87 38.5057 149.344 38.588 149.821 38.5777H149.816Z" fill="url(#paint10_linear_2001_2078)"/>
<path id="Vector_11" d="M163.096 40.867L157.3 27.7207H161.516L165.014 36.0985H165.209L168.566 27.7207H172.681L164.024 47.6326H160.045L163.096 40.867Z" fill="url(#paint11_linear_2001_2078)"/>
</g>
</g>
</g>
<defs>
<filter id="filter0_dii_2001_2078" x="8.82221" y="7.8564" width="35.1544" height="38.5985" filterUnits="userSpaceOnUse" color-interpolation-filters="sRGB">
<feFlood flood-opacity="0" result="BackgroundImageFix"/>
<feColorMatrix in="SourceAlpha" type="matrix" values="0 0 0 0 0 0 0 0 0 0 0 0 0 0 0 0 0 0 127 0" result="hardAlpha"/>
<feOffset dy="0.196544"/>
<feGaussianBlur stdDeviation="0.491361"/>
<feComposite in2="hardAlpha" operator="out"/>
<feColorMatrix type="matrix" values="0 0 0 0 0 0 0 0 0 0 0 0 0 0 0 0 0 0 0.25 0"/>
<feBlend mode="normal" in2="BackgroundImageFix" result="effect1_dropShadow_2001_2078"/>
<feBlend mode="normal" in="SourceGraphic" in2="effect1_dropShadow_2001_2078" result="shape"/>
<feColorMatrix in="SourceAlpha" type="matrix" values="0 0 0 0 0 0 0 0 0 0 0 0 0 0 0 0 0 0 127 0" result="hardAlpha"/>
<feOffset dy="0.196544"/>
<feGaussianBlur stdDeviation="0.491361"/>
<feComposite in2="hardAlpha" operator="arithmetic" k2="-1" k3="1"/>
<feColorMatrix type="matrix" values="0 0 0 0 0.191563 0 0 0 0 0.566946 0 0 0 0 0.94233 0 0 0 1 0"/>
<feBlend mode="normal" in2="shape" result="effect2_innerShadow_2001_2078"/>
<feColorMatrix in="SourceAlpha" type="matrix" values="0 0 0 0 0 0 0 0 0 0 0 0 0 0 0 0 0 0 127 0" result="hardAlpha"/>
<feOffset dy="0.196544"/>
<feGaussianBlur stdDeviation="0.0982721"/>
<feComposite in2="hardAlpha" operator="arithmetic" k2="-1" k3="1"/>
<feColorMatrix type="matrix" values="0 0 0 0 0 0 0 0 0 0.506307 0 0 0 0 0.920557 0 0 0 0.25 0"/>
<feBlend mode="normal" in2="effect2_innerShadow_2001_2078" result="effect3_innerShadow_2001_2078"/>
</filter>
<filter id="filter1_i_2001_2078" x="43.3879" y="14.5305" width="129.293" height="41.253" filterUnits="userSpaceOnUse" color-interpolation-filters="sRGB">
<feFlood flood-opacity="0" result="BackgroundImageFix"/>
<feBlend mode="normal" in="SourceGraphic" in2="BackgroundImageFix" result="shape"/>
<feColorMatrix in="SourceAlpha" type="matrix" values="0 0 0 0 0 0 0 0 0 0 0 0 0 0 0 0 0 0 127 0" result="hardAlpha"/>
<feOffset dy="1.78356"/>
<feGaussianBlur stdDeviation="0.891779"/>
<feComposite in2="hardAlpha" operator="arithmetic" k2="-1" k3="1"/>
<feColorMatrix type="matrix" values="0 0 0 0 0 0 0 0 0 0 0 0 0 0 0 0 0 0 0.25 0"/>
<feBlend mode="normal" in2="shape" result="effect1_innerShadow_2001_2078"/>
</filter>
<filter id="filter2_d_2001_2078" x="34.8982" y="18.7753" width="137.782" height="35.2246" filterUnits="userSpaceOnUse" color-interpolation-filters="sRGB">
<feFlood flood-opacity="0" result="BackgroundImageFix"/>
<feColorMatrix in="SourceAlpha" type="matrix" values="0 0 0 0 0 0 0 0 0 0 0 0 0 0 0 0 0 0 127 0" result="hardAlpha"/>
<feOffset dx="-4.24487" dy="2.12244"/>
<feGaussianBlur stdDeviation="2.12244"/>
<feComposite in2="hardAlpha" operator="out"/>
<feColorMatrix type="matrix" values="0 0 0 0 0 0 0 0 0 0 0 0 0 0 0 0 0 0 0.78 0"/>
<feBlend mode="normal" in2="BackgroundImageFix" result="effect1_dropShadow_2001_2078"/>
<feBlend mode="normal" in="SourceGraphic" in2="effect1_dropShadow_2001_2078" result="shape"/>
</filter>
<linearGradient id="paint0_linear_2001_2078" x1="27" y1="0" x2="27" y2="54" gradientUnits="userSpaceOnUse">
<stop stop-color="#003A9E"/>
<stop offset="0.295009" stop-color="#002980"/>
<stop offset="0.925008" stop-color="#000316"/>
</linearGradient>
<linearGradient id="paint1_linear_2001_2078" x1="27.2981" y1="16.3115" x2="27.2981" y2="45.2756" gradientUnits="userSpaceOnUse">
<stop offset="0.640009" stop-color="white"/>
<stop offset="1" stop-color="#012A8A"/>
</linearGradient>
<linearGradient id="paint2_linear_2001_2078" x1="24.4566" y1="6.99614" x2="24.4566" y2="31.3739" gradientUnits="userSpaceOnUse">
<stop offset="0.468418" stop-color="white"/>
<stop offset="1" stop-color="#012A8A"/>
</linearGradient>
<linearGradient id="paint3_linear_2001_2078" x1="22.9568" y1="8.64258" x2="27.9175" y2="23.0442" gradientUnits="userSpaceOnUse">
<stop offset="0.640009" stop-color="white"/>
<stop offset="1" stop-color="#012A8A"/>
</linearGradient>
<linearGradient id="paint4_linear_2001_2078" x1="43.3879" y1="31.4446" x2="57.8009" y2="31.4446" gradientUnits="userSpaceOnUse">
<stop offset="0.567222" stop-color="white"/>
<stop offset="1" stop-color="#CBCBCB"/>
</linearGradient>
<linearGradient id="paint5_linear_2001_2078" x1="60.1106" y1="37.4355" x2="74.6328" y2="37.4355" gradientUnits="userSpaceOnUse">
<stop offset="0.567222" stop-color="white"/>
<stop offset="1" stop-color="#CBCBCB"/>
</linearGradient>
<linearGradient id="paint6_linear_2001_2078" x1="75.9409" y1="34.631" x2="88.8876" y2="34.631" gradientUnits="userSpaceOnUse">
<stop offset="0.567222" stop-color="white"/>
<stop offset="1" stop-color="#CBCBCB"/>
</linearGradient>
<linearGradient id="paint7_linear_2001_2078" x1="90.6418" y1="34.6534" x2="104.527" y2="34.6534" gradientUnits="userSpaceOnUse">
<stop offset="0.567222" stop-color="white"/>
<stop offset="1" stop-color="#CBCBCB"/>
</linearGradient>
<linearGradient id="paint8_linear_2001_2078" x1="105.584" y1="34.659" x2="119.676" y2="34.659" gradientUnits="userSpaceOnUse">
<stop offset="0.567222" stop-color="white"/>
<stop offset="1" stop-color="#CBCBCB"/>
</linearGradient>
<linearGradient id="paint9_linear_2001_2078" x1="125.951" y1="31.4447" x2="140.369" y2="31.4447" gradientUnits="userSpaceOnUse">
<stop offset="0.567222" stop-color="white"/>
<stop offset="1" stop-color="#CBCBCB"/>
</linearGradient>
<linearGradient id="paint10_linear_2001_2078" x1="142.655" y1="37.4357" x2="157.188" y2="37.4357" gradientUnits="userSpaceOnUse">
<stop offset="0.567222" stop-color="white"/>
<stop offset="1" stop-color="#CBCBCB"/>
</linearGradient>
<linearGradient id="paint11_linear_2001_2078" x1="157.3" y1="37.6766" x2="172.681" y2="37.6766" gradientUnits="userSpaceOnUse">
<stop offset="0.567222" stop-color="white"/>
<stop offset="1" stop-color="#CBCBCB"/>
</linearGradient>
</defs>
</svg>
