<svg width="126" height="56" viewBox="0 0 126 56" fill="none" xmlns="http://www.w3.org/2000/svg">
<rect width="54" height="54" rx="27" fill="url(#paint0_linear_2308_2499)"/>
<g filter="url(#filter0_dii_2308_2499)">
<path d="M42.9678 16.3105C38.6672 17.6294 34.5449 20.6367 31.0662 23.1725L30.6711 22.3187C29.8683 22.7201 29.0465 23.096 28.2118 23.4337L28.8489 24.829L29.9576 27.2501L36.9979 42.5413H33.2834L27.288 29.5566L26.1475 27.0845L24.9943 24.5805C24.6312 24.6952 24.2617 24.8035 23.8921 24.9055C23.3633 25.052 22.8472 25.1858 22.3311 25.3005L24.045 29.0787C19.8213 33.2925 16.136 38.0135 13.0735 43.1338C12.4874 44.1214 11.6783 45.1345 11.6018 45.2746L14.8512 45.1472L15.0232 44.8541C17.8868 40.0566 21.2969 35.6073 25.1854 31.5953L31.1936 44.8541H41.1774L32.1621 25.5235C35.3477 23.1215 39.1005 20.2608 42.9933 18.9674L42.9678 16.3105Z" fill="url(#paint1_linear_2308_2499)"/>
<path d="M31.3932 15.0655C32.2384 14.5494 32.593 13.4848 32.0712 12.6431C32.1245 12.5957 32.1601 12.5365 32.2075 12.5305C33.8846 12.2461 35.5677 11.9853 37.2625 12.3824C37.5686 12.4482 37.8681 12.5414 38.1574 12.6609C38.3515 12.7184 38.5296 12.8201 38.6778 12.9581C38.8259 13.096 38.94 13.2664 39.0112 13.4559C39.0824 13.6454 39.1088 13.8488 39.0881 14.0502C39.0675 14.2516 39.0004 14.4454 38.8922 14.6165C38.7553 14.8983 38.5884 15.1646 38.3945 15.4107C36.9248 17.1922 35.1387 18.6869 33.1261 19.8197C30.0919 21.6568 26.7436 22.7828 23.4131 23.8969C20.7054 24.8663 17.8702 25.4334 14.9979 25.5799C13.9258 25.6555 12.8484 25.5938 11.7919 25.3962C11.3295 25.3083 10.8874 25.1355 10.4881 24.8866C10.3386 24.8105 10.206 24.7051 10.0981 24.5767C9.99016 24.4483 9.9092 24.2995 9.85999 24.1391C9.81078 23.9788 9.7943 23.8102 9.81159 23.6434C9.82889 23.4765 9.87963 23.3148 9.96069 23.168C10.2423 22.4984 10.6577 21.8935 11.1814 21.3901C12.0425 20.597 12.9639 19.8718 13.9371 19.2211C13.9994 19.1567 14.0755 19.1073 14.1596 19.0765C14.2438 19.0457 14.3339 19.0344 14.423 19.0434C14.6305 19.1797 14.5772 19.4227 14.6187 19.636C14.7846 20.4064 15.0453 20.6494 15.8394 20.7146C16.6211 20.7595 17.405 20.6815 18.1625 20.4834C20.2962 20.0926 22.392 19.5175 24.4264 18.7648C26.5454 17.8501 28.597 16.7866 30.5659 15.5825C30.8415 15.4052 31.117 15.234 31.3932 15.0655Z" fill="url(#paint2_linear_2308_2499)"/>
<path d="M15.1969 18.4166C15.0297 17.1548 14.9328 15.8846 14.9065 14.612C14.9065 13.3082 15.5347 12.6564 16.8622 12.5793C17.7583 12.5645 18.6545 12.6 19.5467 12.686C22.5098 12.84 21.9172 13.0119 24.181 10.9792C24.8151 10.3866 25.3662 9.79399 26.0655 9.20137C27.1144 8.37171 28.0922 8.46061 28.91 9.50361C29.5679 10.3511 30.1664 11.24 30.8183 12.0934C30.8859 12.1573 30.9375 12.2362 30.9689 12.3238C31.0004 12.4114 31.0107 12.5052 30.9992 12.5975C30.9876 12.6898 30.9545 12.7782 30.9025 12.8553C30.8504 12.9325 30.781 12.9963 30.6998 13.0416C29.6632 13.9319 28.5134 14.6812 27.2804 15.2698C25.2027 16.3423 23.0177 17.1924 20.7616 17.8062C19.217 18.2365 17.6238 18.4675 16.0206 18.4936C15.7439 18.5382 15.4605 18.5117 15.1969 18.4166Z" fill="url(#paint3_linear_2308_2499)"/>
</g>
<g filter="url(#filter1_di_2308_2499)">
<path d="M44 38.304H47.9482C48.1138 40.0158 49.0249 40.844 50.7091 40.844C52.3381 40.844 53.4701 39.8225 53.4701 38.3592C53.4701 37.5033 53.1388 36.7854 52.5314 36.2885C51.9239 35.8191 51.7307 35.7363 48.9973 34.7147C46.2364 33.6932 44.7455 31.7329 44.7455 29.1652C44.7455 25.9349 47.3684 23.3672 50.6815 23.3672C52.5866 23.3672 54.3536 24.1679 55.458 25.5483C56.2863 26.5699 56.6452 27.6191 56.728 29.1652H52.8075C52.697 27.7847 51.9239 27.0117 50.6539 27.0117C49.4115 27.0117 48.5556 27.8675 48.5556 29.0824C48.5556 29.8278 48.9421 30.4628 49.6876 30.9322C49.9637 31.0979 50.0189 31.1255 51.9516 31.8433C53.9671 32.6164 54.6021 32.9477 55.4027 33.6932C56.6176 34.7975 57.225 36.2332 57.225 37.945C57.225 41.6447 54.3812 44.4885 50.7091 44.4885C48.528 44.4885 46.5401 43.5774 45.3253 42.0313C44.497 40.9269 44.138 39.9053 44 38.304Z" fill="#D9D9D9"/>
<path d="M44 38.304H47.9482C48.1138 40.0158 49.0249 40.844 50.7091 40.844C52.3381 40.844 53.4701 39.8225 53.4701 38.3592C53.4701 37.5033 53.1388 36.7854 52.5314 36.2885C51.9239 35.8191 51.7307 35.7363 48.9973 34.7147C46.2364 33.6932 44.7455 31.7329 44.7455 29.1652C44.7455 25.9349 47.3684 23.3672 50.6815 23.3672C52.5866 23.3672 54.3536 24.1679 55.458 25.5483C56.2863 26.5699 56.6452 27.6191 56.728 29.1652H52.8075C52.697 27.7847 51.9239 27.0117 50.6539 27.0117C49.4115 27.0117 48.5556 27.8675 48.5556 29.0824C48.5556 29.8278 48.9421 30.4628 49.6876 30.9322C49.9637 31.0979 50.0189 31.1255 51.9516 31.8433C53.9671 32.6164 54.6021 32.9477 55.4027 33.6932C56.6176 34.7975 57.225 36.2332 57.225 37.945C57.225 41.6447 54.3812 44.4885 50.7091 44.4885C48.528 44.4885 46.5401 43.5774 45.3253 42.0313C44.497 40.9269 44.138 39.9053 44 38.304Z" fill="url(#paint4_linear_2308_2499)"/>
<path d="M59.4484 49.2373V28.8339H62.8168V30.6285C64.004 29.2204 65.771 28.475 67.8693 28.475C72.2592 28.475 75.462 31.8157 75.462 36.4265C75.462 41.0649 72.2316 44.4885 67.8141 44.4885C65.9367 44.4885 64.5286 43.9363 63.1205 42.6939V49.2373H59.4484ZM67.3724 31.8433C64.8323 31.8433 62.8996 33.8312 62.8996 36.4541C62.8996 39.1322 64.8323 41.1201 67.4276 41.1201C69.8572 41.1201 71.7623 39.1046 71.7623 36.5093C71.7623 33.8588 69.8572 31.8433 67.3724 31.8433Z" fill="#D9D9D9"/>
<path d="M59.4484 49.2373V28.8339H62.8168V30.6285C64.004 29.2204 65.771 28.475 67.8693 28.475C72.2592 28.475 75.462 31.8157 75.462 36.4265C75.462 41.0649 72.2316 44.4885 67.8141 44.4885C65.9367 44.4885 64.5286 43.9363 63.1205 42.6939V49.2373H59.4484ZM67.3724 31.8433C64.8323 31.8433 62.8996 33.8312 62.8996 36.4541C62.8996 39.1322 64.8323 41.1201 67.4276 41.1201C69.8572 41.1201 71.7623 39.1046 71.7623 36.5093C71.7623 33.8588 69.8572 31.8433 67.3724 31.8433Z" fill="url(#paint5_linear_2308_2499)"/>
<path d="M85.102 28.475C89.7128 28.475 93.2744 32.0366 93.2744 36.5922C93.2744 40.8993 89.5748 44.4885 85.1296 44.4885C80.6569 44.4885 77.0124 40.8993 77.0124 36.4817C77.0124 32.0918 80.6569 28.475 85.102 28.475ZM85.1296 31.8433C82.7 31.8433 80.7121 33.914 80.7121 36.4265C80.7121 39.0494 82.6724 41.1201 85.1572 41.1201C87.5869 41.1201 89.5748 39.0494 89.5748 36.4817C89.5748 33.914 87.5869 31.8433 85.1296 31.8433Z" fill="#D9D9D9"/>
<path d="M85.102 28.475C89.7128 28.475 93.2744 32.0366 93.2744 36.5922C93.2744 40.8993 89.5748 44.4885 85.1296 44.4885C80.6569 44.4885 77.0124 40.8993 77.0124 36.4817C77.0124 32.0918 80.6569 28.475 85.102 28.475ZM85.1296 31.8433C82.7 31.8433 80.7121 33.914 80.7121 36.4265C80.7121 39.0494 82.6724 41.1201 85.1572 41.1201C87.5869 41.1201 89.5748 39.0494 89.5748 36.4817C89.5748 33.914 87.5869 31.8433 85.1296 31.8433Z" fill="url(#paint6_linear_2308_2499)"/>
<path d="M95.3355 44.1296V28.8339H98.7038V30.3248C99.6702 28.9167 100.443 28.475 102.017 28.475H102.293V32.009C100.084 32.0918 98.9247 33.3618 99.0075 35.6258V44.1296H95.3355Z" fill="#D9D9D9"/>
<path d="M95.3355 44.1296V28.8339H98.7038V30.3248C99.6702 28.9167 100.443 28.475 102.017 28.475H102.293V32.009C100.084 32.0918 98.9247 33.3618 99.0075 35.6258V44.1296H95.3355Z" fill="url(#paint7_linear_2308_2499)"/>
<path d="M119.237 28.8339V44.1296H115.868V42.1417C114.405 43.8259 112.942 44.4885 110.788 44.4885C106.315 44.4885 103.085 41.1477 103.085 36.5369C103.085 31.8709 106.343 28.475 110.871 28.475C113.08 28.475 114.598 29.1928 115.868 30.877V28.8339H119.237ZM111.258 31.8433C108.635 31.8433 106.785 33.8312 106.785 36.6198C106.785 39.2979 108.635 41.1201 111.313 41.1201C112.721 41.1201 113.908 40.6508 114.654 39.7397C115.316 38.9666 115.758 37.6966 115.758 36.5922C115.758 33.8036 113.88 31.8433 111.258 31.8433Z" fill="#D9D9D9"/>
<path d="M119.237 28.8339V44.1296H115.868V42.1417C114.405 43.8259 112.942 44.4885 110.788 44.4885C106.315 44.4885 103.085 41.1477 103.085 36.5369C103.085 31.8709 106.343 28.475 110.871 28.475C113.08 28.475 114.598 29.1928 115.868 30.877V28.8339H119.237ZM111.258 31.8433C108.635 31.8433 106.785 33.8312 106.785 36.6198C106.785 39.2979 108.635 41.1201 111.313 41.1201C112.721 41.1201 113.908 40.6508 114.654 39.7397C115.316 38.9666 115.758 37.6966 115.758 36.5922C115.758 33.8036 113.88 31.8433 111.258 31.8433Z" fill="url(#paint8_linear_2308_2499)"/>
</g>
<defs>
<filter id="filter0_dii_2308_2499" x="8.82221" y="7.8564" width="35.1538" height="38.5973" filterUnits="userSpaceOnUse" color-interpolation-filters="sRGB">
<feFlood flood-opacity="0" result="BackgroundImageFix"/>
<feColorMatrix in="SourceAlpha" type="matrix" values="0 0 0 0 0 0 0 0 0 0 0 0 0 0 0 0 0 0 127 0" result="hardAlpha"/>
<feOffset dy="0.196544"/>
<feGaussianBlur stdDeviation="0.491361"/>
<feComposite in2="hardAlpha" operator="out"/>
<feColorMatrix type="matrix" values="0 0 0 0 0 0 0 0 0 0 0 0 0 0 0 0 0 0 0.25 0"/>
<feBlend mode="normal" in2="BackgroundImageFix" result="effect1_dropShadow_2308_2499"/>
<feBlend mode="normal" in="SourceGraphic" in2="effect1_dropShadow_2308_2499" result="shape"/>
<feColorMatrix in="SourceAlpha" type="matrix" values="0 0 0 0 0 0 0 0 0 0 0 0 0 0 0 0 0 0 127 0" result="hardAlpha"/>
<feOffset dy="0.196544"/>
<feGaussianBlur stdDeviation="0.491361"/>
<feComposite in2="hardAlpha" operator="arithmetic" k2="-1" k3="1"/>
<feColorMatrix type="matrix" values="0 0 0 0 0.191563 0 0 0 0 0.566946 0 0 0 0 0.94233 0 0 0 1 0"/>
<feBlend mode="normal" in2="shape" result="effect2_innerShadow_2308_2499"/>
<feColorMatrix in="SourceAlpha" type="matrix" values="0 0 0 0 0 0 0 0 0 0 0 0 0 0 0 0 0 0 127 0" result="hardAlpha"/>
<feOffset dy="0.196544"/>
<feGaussianBlur stdDeviation="0.0982721"/>
<feComposite in2="hardAlpha" operator="arithmetic" k2="-1" k3="1"/>
<feColorMatrix type="matrix" values="0 0 0 0 0 0 0 0 0 0.506307 0 0 0 0 0.920557 0 0 0 0.25 0"/>
<feBlend mode="normal" in2="effect2_innerShadow_2308_2499" result="effect3_innerShadow_2308_2499"/>
</filter>
<filter id="filter1_di_2308_2499" x="35.5103" y="21.2448" width="83.7264" height="34.3599" filterUnits="userSpaceOnUse" color-interpolation-filters="sRGB">
<feFlood flood-opacity="0" result="BackgroundImageFix"/>
<feColorMatrix in="SourceAlpha" type="matrix" values="0 0 0 0 0 0 0 0 0 0 0 0 0 0 0 0 0 0 127 0" result="hardAlpha"/>
<feOffset dx="-4.24487" dy="2.12244"/>
<feGaussianBlur stdDeviation="2.12244"/>
<feComposite in2="hardAlpha" operator="out"/>
<feColorMatrix type="matrix" values="0 0 0 0 0 0 0 0 0 0 0 0 0 0 0 0 0 0 0.78 0"/>
<feBlend mode="normal" in2="BackgroundImageFix" result="effect1_dropShadow_2308_2499"/>
<feBlend mode="normal" in="SourceGraphic" in2="effect1_dropShadow_2308_2499" result="shape"/>
<feColorMatrix in="SourceAlpha" type="matrix" values="0 0 0 0 0 0 0 0 0 0 0 0 0 0 0 0 0 0 127 0" result="hardAlpha"/>
<feOffset dy="1.78356"/>
<feGaussianBlur stdDeviation="0.891779"/>
<feComposite in2="hardAlpha" operator="arithmetic" k2="-1" k3="1"/>
<feColorMatrix type="matrix" values="0 0 0 0 0 0 0 0 0 0 0 0 0 0 0 0 0 0 0.25 0"/>
<feBlend mode="normal" in2="shape" result="effect2_innerShadow_2308_2499"/>
</filter>
<linearGradient id="paint0_linear_2308_2499" x1="27" y1="0" x2="27" y2="54" gradientUnits="userSpaceOnUse">
<stop stop-color="#003A9E"/>
<stop offset="0.295009" stop-color="#002980"/>
<stop offset="0.925008" stop-color="#000316"/>
</linearGradient>
<linearGradient id="paint1_linear_2308_2499" x1="27.2976" y1="16.3105" x2="27.2976" y2="45.2746" gradientUnits="userSpaceOnUse">
<stop offset="0.640009" stop-color="white"/>
<stop offset="1" stop-color="#012A8A"/>
</linearGradient>
<linearGradient id="paint2_linear_2308_2499" x1="24.4566" y1="6.99638" x2="24.4566" y2="31.3742" gradientUnits="userSpaceOnUse">
<stop offset="0.468418" stop-color="white"/>
<stop offset="1" stop-color="#012A8A"/>
</linearGradient>
<linearGradient id="paint3_linear_2308_2499" x1="22.9551" y1="8.64258" x2="27.9158" y2="23.0442" gradientUnits="userSpaceOnUse">
<stop offset="0.640009" stop-color="white"/>
<stop offset="1" stop-color="#012A8A"/>
</linearGradient>
<linearGradient id="paint4_linear_2308_2499" x1="44" y1="36.3023" x2="119.237" y2="36.3023" gradientUnits="userSpaceOnUse">
<stop offset="0.567222" stop-color="white"/>
<stop offset="1" stop-color="#CBCBCB"/>
</linearGradient>
<linearGradient id="paint5_linear_2308_2499" x1="44" y1="36.3023" x2="119.237" y2="36.3023" gradientUnits="userSpaceOnUse">
<stop offset="0.567222" stop-color="white"/>
<stop offset="1" stop-color="#CBCBCB"/>
</linearGradient>
<linearGradient id="paint6_linear_2308_2499" x1="44" y1="36.3023" x2="119.237" y2="36.3023" gradientUnits="userSpaceOnUse">
<stop offset="0.567222" stop-color="white"/>
<stop offset="1" stop-color="#CBCBCB"/>
</linearGradient>
<linearGradient id="paint7_linear_2308_2499" x1="44" y1="36.3023" x2="119.237" y2="36.3023" gradientUnits="userSpaceOnUse">
<stop offset="0.567222" stop-color="white"/>
<stop offset="1" stop-color="#CBCBCB"/>
</linearGradient>
<linearGradient id="paint8_linear_2308_2499" x1="44" y1="36.3023" x2="119.237" y2="36.3023" gradientUnits="userSpaceOnUse">
<stop offset="0.567222" stop-color="white"/>
<stop offset="1" stop-color="#CBCBCB"/>
</linearGradient>
</defs>
</svg>