<svg width="80" height="80" viewBox="0 0 80 80" fill="none" xmlns="http://www.w3.org/2000/svg">
  <g opacity="0.5">
    <path d="M40 80C62.0914 80 80 62.0914 80 40C80 17.9086 62.0914 0 40 0C17.9086 0 0 17.9086 0 40C0 62.0914 17.9086 80 40 80Z" fill="url(#paint0_linear_globe)"/>
    <path d="M40 70C56.5685 70 70 56.5685 70 40C70 23.4315 56.5685 10 40 10C23.4315 10 10 23.4315 10 40C10 56.5685 23.4315 70 40 70Z" fill="url(#paint1_linear_globe)"/>
    <path d="M40 60C51.0457 60 60 51.0457 60 40C60 28.9543 51.0457 20 40 20C28.9543 20 20 28.9543 20 40C20 51.0457 28.9543 60 40 60Z" fill="url(#paint2_linear_globe)"/>
  </g>
  <defs>
    <linearGradient id="paint0_linear_globe" x1="40" y1="0" x2="40" y2="80" gradientUnits="userSpaceOnUse">
      <stop offset="0.468418" stop-color="white"/>
      <stop offset="1" stop-color="#012A8A"/>
    </linearGradient>
    <linearGradient id="paint1_linear_globe" x1="40" y1="10" x2="40" y2="70" gradientUnits="userSpaceOnUse">
      <stop offset="0.468418" stop-color="white"/>
      <stop offset="1" stop-color="#012A8A"/>
    </linearGradient>
    <linearGradient id="paint2_linear_globe" x1="40" y1="20" x2="40" y2="60" gradientUnits="userSpaceOnUse">
      <stop offset="0.468418" stop-color="white"/>
      <stop offset="1" stop-color="#012A8A"/>
    </linearGradient>
  </defs>
</svg> 