<svg width="78" height="110" viewBox="0 0 78 110" fill="none" xmlns="http://www.w3.org/2000/svg">
<path fill-rule="evenodd" clip-rule="evenodd" d="M38.6875 109.162C33.2991 109.162 30.1204 81.4066 30.1204 54.5812C30.1204 27.717 33.2991 0 38.6875 0C44.0758 0 47.2932 27.717 47.2932 54.5812C47.2932 81.4066 44.0758 109.162 38.6875 109.162ZM38.6875 0.465185C34.811 0.465185 30.663 22.2124 30.663 54.5812C30.663 69.0793 31.516 82.7246 33.1053 92.9585C34.5784 102.805 36.7105 108.658 38.6875 108.658C42.564 108.658 46.7505 86.95 46.7505 54.5812C46.7505 40.0443 45.859 26.4378 44.3084 16.165C42.7966 6.35747 40.7033 0.465185 38.6875 0.465185Z" fill="url(#paint0_linear_2046_2358)"/>
<path fill-rule="evenodd" clip-rule="evenodd" d="M38.6875 106.061C35.0048 106.061 32.6013 97.7653 31.2057 90.8263C29.2675 81.1351 28.2209 68.2651 28.2209 54.581C28.2209 40.8582 29.2675 27.9882 31.2057 18.297C32.6013 11.358 35.0048 3.10107 38.6875 3.10107C42.3702 3.10107 44.8123 11.358 46.1691 18.297C48.1073 27.9882 49.1929 40.8582 49.1929 54.581C49.1929 68.2651 48.1073 81.1351 46.1691 90.8263C44.8123 97.7653 42.3702 106.061 38.6875 106.061ZM38.6875 3.56626C37.4858 3.56626 34.4234 5.03932 31.7486 18.3745C29.8491 28.027 28.7636 40.897 28.7636 54.581C28.7636 68.2263 29.8491 81.0963 31.7486 90.7488C34.4234 104.123 37.4858 105.557 38.6875 105.557C39.8892 105.557 42.9904 104.123 45.6264 90.7488C47.5647 81.0963 48.6114 68.2263 48.6114 54.581C48.6114 40.897 47.5647 28.027 45.6264 18.3745C42.9904 5.03932 39.8892 3.56626 38.6875 3.56626Z" fill="url(#paint1_linear_2046_2358)"/>
<path fill-rule="evenodd" clip-rule="evenodd" d="M38.6875 102.921C35.315 102.921 32.2137 97.8431 29.8878 88.6558C27.6007 79.5461 26.3215 67.4514 26.3215 54.5814C26.3215 41.7114 27.6007 29.5779 29.8878 20.5069C32.2137 11.2809 35.315 6.20264 38.6875 6.20264C42.0601 6.20264 45.2 11.2809 47.5259 20.5069C49.813 29.5779 51.0535 41.7114 51.0535 54.5814C51.0535 67.4514 49.813 79.5461 47.5259 88.6558C45.2 97.8431 42.0601 102.921 38.6875 102.921ZM38.6875 6.70659C35.6639 6.70659 32.6401 11.746 30.4305 20.5845C28.1433 29.6555 26.903 41.7502 26.903 54.5814C26.903 67.4126 28.1433 79.4685 30.4305 88.5395C32.6401 97.378 35.6639 102.456 38.6875 102.456C41.75 102.456 44.7348 97.378 46.9832 88.5395C49.2316 79.4685 50.5109 67.4126 50.5109 54.5814C50.5109 41.7502 49.2316 29.6555 46.9832 20.5845C44.7348 11.746 41.75 6.70659 38.6875 6.70659Z" fill="url(#paint2_linear_2046_2358)"/>
<path fill-rule="evenodd" clip-rule="evenodd" d="M38.6875 99.8201C34.8498 99.8201 31.2446 95.0907 28.5698 86.4461C25.9338 77.9566 24.4607 66.5984 24.4607 54.5813C24.4607 42.5253 25.9338 31.206 28.5698 22.6777C31.2446 14.0718 34.8498 9.30371 38.6875 9.30371C42.564 9.30371 46.1691 14.0718 48.8439 22.6777C51.4799 31.206 52.953 42.5253 52.953 54.5813C52.953 66.5984 51.4799 77.9566 48.8439 86.4461C46.1691 95.0907 42.564 99.8201 38.6875 99.8201ZM38.6875 9.80766C35.1599 9.80766 31.671 14.537 29.1125 22.7939C26.4765 31.2835 25.0034 42.5641 25.0034 54.5813C25.0034 66.5597 26.4765 77.8403 29.1125 86.3298C31.671 94.5868 35.1599 99.3549 38.6875 99.3549C42.2539 99.3549 45.7427 94.5868 48.3012 86.3298C50.9372 77.8403 52.3715 66.5597 52.3715 54.5813C52.3715 42.5641 50.9372 31.2835 48.3012 22.7939C45.7427 14.537 42.2539 9.80766 38.6875 9.80766Z" fill="url(#paint3_linear_2046_2358)"/>
<path fill-rule="evenodd" clip-rule="evenodd" d="M38.6876 96.7185C34.3459 96.7185 30.2756 92.2993 27.2519 84.2749C24.2282 76.3281 22.5613 65.784 22.5613 54.5809C22.5613 43.3391 24.2282 32.795 27.2519 24.8482C30.2756 16.8238 34.3459 12.4434 38.6876 12.4434C43.068 12.4434 47.1384 16.8238 50.1621 24.8482C53.147 32.795 54.8139 43.3391 54.8139 54.5809C54.8139 65.784 53.147 76.3281 50.1621 84.2749C47.1384 92.2993 43.068 96.7185 38.6876 96.7185ZM38.6876 12.9085C34.5785 12.9085 30.7019 17.2115 27.7558 25.0032C24.7708 32.9113 23.1428 43.4166 23.1428 54.5809C23.1428 65.7453 24.7708 76.2118 27.7558 84.1199C30.7019 91.9117 34.5785 96.2146 38.6876 96.2146C42.7967 96.2146 46.673 91.9117 49.6192 84.1199C52.6041 76.2118 54.271 65.7453 54.271 54.5809C54.271 43.4166 52.6041 32.9113 49.6192 25.0032C46.673 17.2115 42.7967 12.9085 38.6876 12.9085Z" fill="url(#paint4_linear_2046_2358)"/>
<path fill-rule="evenodd" clip-rule="evenodd" d="M38.6874 93.6177C33.8417 93.6177 29.3062 89.5086 25.8949 82.1045C22.5611 74.7391 20.7004 64.9703 20.7004 54.5813C20.7004 44.1923 22.5611 34.4235 25.8949 27.0581C29.3062 19.6153 33.8417 15.5449 38.6874 15.5449C43.5718 15.5449 48.1073 19.6153 51.4798 27.0581C54.8524 34.4235 56.7131 44.1923 56.7131 54.5813C56.7131 64.9703 54.8524 74.7391 51.4798 82.1045C48.1073 89.5086 43.5718 93.6177 38.6874 93.6177ZM38.6874 16.0101C29.0736 16.0101 21.2431 33.2993 21.2431 54.5813C21.2431 75.8245 29.0736 93.1137 38.6874 93.1137C48.3011 93.1137 56.1316 75.8245 56.1316 54.5813C56.1316 33.2993 48.3011 16.0101 38.6874 16.0101Z" fill="url(#paint5_linear_2046_2358)"/>
<path fill-rule="evenodd" clip-rule="evenodd" d="M38.6876 90.4776C33.338 90.4776 28.3374 86.7174 24.5772 79.8947C20.8557 73.1496 18.801 64.1174 18.801 54.5812C18.801 45.0062 20.8557 36.0127 24.5772 29.2288C28.3374 22.4062 33.338 18.646 38.6876 18.646C44.0372 18.646 49.0766 22.4062 52.798 29.2288C56.5195 36.0127 58.574 45.0062 58.574 54.5812C58.574 64.1174 56.5195 73.1496 52.798 79.8947C49.0766 86.7174 44.0372 90.4776 38.6876 90.4776ZM38.6876 19.1499C28.0272 19.1499 19.3825 35.0436 19.3825 54.5812C19.3825 74.1187 28.0272 90.0124 38.6876 90.0124C49.348 90.0124 58.0313 74.1187 58.0313 54.5812C58.0313 35.0436 49.348 19.1499 38.6876 19.1499Z" fill="url(#paint6_linear_2046_2358)"/>
<path fill-rule="evenodd" clip-rule="evenodd" d="M38.6923 87.3763C32.8775 87.3763 27.3728 83.965 23.2637 77.7238C19.1934 71.5214 16.9451 63.3032 16.9451 54.5811C16.9451 45.8202 19.1934 37.602 23.2637 31.3996C27.3728 25.1972 32.8775 21.7471 38.6923 21.7471C44.5458 21.7471 50.0116 25.1972 54.1207 31.3996C58.2298 37.602 60.4781 45.8202 60.4781 54.5811C60.4781 63.3032 58.2298 71.5214 54.1207 77.7238C50.0116 83.965 44.5458 87.3763 38.6923 87.3763ZM38.6923 22.251C27.024 22.251 17.4877 36.7491 17.4877 54.5811C17.4877 72.3742 27.024 86.9111 38.6923 86.9111C50.3993 86.9111 59.8966 72.3742 59.8966 54.5811C59.8966 36.7491 50.3993 22.251 38.6923 22.251Z" fill="url(#paint7_linear_2046_2358)"/>
<path fill-rule="evenodd" clip-rule="evenodd" d="M38.6874 84.2752C25.6624 84.2752 15.0408 70.9401 15.0408 54.5812C15.0408 38.1836 25.6624 24.8872 38.6874 24.8872C51.7513 24.8872 62.3341 38.1836 62.3341 54.5812C62.3341 70.9401 51.7513 84.2752 38.6874 84.2752ZM38.6874 25.3524C25.9725 25.3524 15.6222 38.455 15.6222 54.5812C15.6222 70.6687 25.9725 83.7713 38.6874 83.7713C51.4411 83.7713 61.7914 70.6687 61.7914 54.5812C61.7914 38.455 51.4411 25.3524 38.6874 25.3524Z" fill="url(#paint8_linear_2046_2358)"/>
<path fill-rule="evenodd" clip-rule="evenodd" d="M38.6877 81.1739C24.616 81.1739 13.1802 69.2343 13.1802 54.5811C13.1802 39.8892 24.616 27.9883 38.6877 27.9883C52.7594 27.9883 64.2338 39.8892 64.2338 54.5811C64.2338 69.2343 52.7594 81.1739 38.6877 81.1739ZM38.6877 28.4535C24.9261 28.4535 13.723 40.1605 13.723 54.5811C13.723 68.9629 24.9261 80.67 38.6877 80.67C52.4493 80.67 63.6523 68.9629 63.6523 54.5811C63.6523 40.1605 52.4493 28.4535 38.6877 28.4535Z" fill="url(#paint9_linear_2046_2358)"/>
<path fill-rule="evenodd" clip-rule="evenodd" d="M38.6875 78.0338C23.6079 78.0338 11.2805 67.5285 11.2805 54.581C11.2805 41.6335 23.6079 31.0894 38.6875 31.0894C53.8058 31.0894 66.0942 41.6335 66.0942 54.581C66.0942 67.5285 53.8058 78.0338 38.6875 78.0338ZM38.6875 31.5933C23.8792 31.5933 11.862 41.9048 11.862 54.581C11.862 67.2571 23.8792 77.5686 38.6875 77.5686C53.4957 77.5686 65.5516 67.2571 65.5516 54.581C65.5516 41.9048 53.4957 31.5933 38.6875 31.5933Z" fill="url(#paint10_linear_2046_2358)"/>
<path fill-rule="evenodd" clip-rule="evenodd" d="M38.6875 74.933C22.5613 74.933 9.41992 65.7844 9.41992 54.5813C9.41992 43.3395 22.5613 34.1909 38.6875 34.1909C54.8525 34.1909 67.9939 43.3395 67.9939 54.5813C67.9939 65.7844 54.8525 74.933 38.6875 74.933ZM38.6875 34.6949C22.8714 34.6949 9.96259 43.6108 9.96259 54.5813C9.96259 65.5131 22.8714 74.4678 38.6875 74.4678C54.5424 74.4678 67.4124 65.5131 67.4124 54.5813C67.4124 43.6108 54.5424 34.6949 38.6875 34.6949Z" fill="url(#paint11_linear_2046_2358)"/>
<path fill-rule="evenodd" clip-rule="evenodd" d="M38.6922 71.8314C21.5193 71.8314 7.52515 64.0784 7.52515 54.581C7.52515 45.0448 21.5193 37.3306 38.6922 37.3306C55.9039 37.3306 69.8592 45.0448 69.8592 54.581C69.8592 64.0784 55.9039 71.8314 38.6922 71.8314ZM38.6922 37.7958C21.8294 37.7958 8.10662 45.3162 8.10662 54.581C8.10662 63.8071 21.8294 71.3275 38.6922 71.3275C55.5937 71.3275 69.3166 63.8071 69.3166 54.581C69.3166 45.3162 55.5937 37.7958 38.6922 37.7958Z" fill="url(#paint12_linear_2046_2358)"/>
<path fill-rule="evenodd" clip-rule="evenodd" d="M38.6875 68.7306C29.8879 68.7306 21.6309 67.2575 15.4285 64.6215C9.10983 61.9467 5.65967 58.3803 5.65967 54.5814C5.65967 50.7436 9.10983 47.1772 15.4285 44.5025C21.6309 41.8664 29.8879 40.4321 38.6875 40.4321C47.4872 40.4321 55.7442 41.8664 61.9854 44.5025C68.2653 47.1772 71.754 50.7436 71.754 54.5814C71.754 58.3803 68.2653 61.9467 61.9854 64.6215C55.7442 67.2575 47.4872 68.7306 38.6875 68.7306ZM38.6875 40.8973C20.7781 40.8973 6.20234 47.0222 6.20234 54.5814C6.20234 62.1018 20.7781 68.2267 38.6875 68.2267C56.597 68.2267 71.1726 62.1018 71.1726 54.5814C71.1726 47.0222 56.597 40.8973 38.6875 40.8973Z" fill="url(#paint13_linear_2046_2358)"/>
<path fill-rule="evenodd" clip-rule="evenodd" d="M38.6876 65.5905C29.4227 65.5905 20.6619 64.4663 14.1106 62.4118C7.44301 60.3572 3.76025 57.5661 3.76025 54.5812C3.76025 51.5576 7.44301 48.7665 14.1106 46.7119C20.6619 44.6574 29.4227 43.5332 38.6876 43.5332C47.9912 43.5332 56.7133 44.6574 63.3034 46.7119C69.9709 48.7665 73.6149 51.5576 73.6149 54.5812C73.6149 57.5661 69.9709 60.3572 63.3034 62.4118C56.7133 64.4663 47.9912 65.5905 38.6876 65.5905ZM38.6876 44.0371C29.4615 44.0371 20.8169 45.1226 14.3044 47.1771C7.86942 49.1541 4.34173 51.7902 4.34173 54.5812C4.34173 57.3336 7.86942 59.9696 14.3044 61.9853C20.8169 64.0011 29.4615 65.1253 38.6876 65.1253C47.9137 65.1253 56.597 64.0011 63.1095 61.9853C69.5445 59.9696 73.072 57.3336 73.072 54.5812C73.072 51.7902 69.5445 49.1541 63.1095 47.1771C56.597 45.1226 47.9137 44.0371 38.6876 44.0371Z" fill="url(#paint14_linear_2046_2358)"/>
<path fill-rule="evenodd" clip-rule="evenodd" d="M38.6874 62.4892C18.0644 62.4892 1.89941 59.0003 1.89941 54.5811C1.89941 50.1231 18.0644 46.6343 38.6874 46.6343C59.3491 46.6343 75.5142 50.1231 75.5142 54.5811C75.5142 59.0003 59.3491 62.4892 38.6874 62.4892ZM38.6874 47.1382C28.9574 47.1382 19.8089 47.9135 12.9474 49.3866C6.27986 50.7821 2.44209 52.6816 2.44209 54.5811C2.44209 56.4806 6.27986 58.3801 12.9474 59.7756C19.8089 61.2099 28.9574 61.9852 38.6874 61.9852C48.4174 61.9852 57.566 61.2099 64.4661 59.7756C71.1337 58.3801 74.9327 56.4806 74.9327 54.5811C74.9327 52.6816 71.1337 50.7821 64.4661 49.3866C57.566 47.9135 48.4174 47.1382 38.6874 47.1382Z" fill="url(#paint15_linear_2046_2358)"/>
<path fill-rule="evenodd" clip-rule="evenodd" d="M38.6876 59.3881C28.4149 59.3881 18.7623 58.8842 11.5133 58.0314C3.87658 57.1398 0 55.9768 0 54.5813C0 53.1857 3.87658 52.0228 11.5133 51.0924C18.7623 50.2396 28.4149 49.7744 38.6876 49.7744C48.9603 49.7744 58.6127 50.2396 65.9005 51.0924C73.4985 52.0228 77.375 53.1857 77.375 54.5813C77.375 55.9768 73.4985 57.1398 65.9005 58.0314C58.6127 58.8842 48.9603 59.3881 38.6876 59.3881ZM38.6876 50.2396C28.4536 50.2396 18.8012 50.7048 11.5909 51.5964C3.45024 52.5267 0.581475 53.7672 0.581475 54.5813C0.581475 55.3954 3.45024 56.5971 11.5909 57.5662C18.8012 58.419 28.4536 58.8842 38.6876 58.8842C48.9603 58.8842 58.5741 58.419 65.8231 57.5662C73.925 56.5971 76.8324 55.3954 76.8324 54.5813C76.8324 53.7672 73.925 52.5267 65.8231 51.5964C58.5741 50.7048 48.9603 50.2396 38.6876 50.2396Z" fill="url(#paint16_linear_2046_2358)"/>
<defs>
<linearGradient id="paint0_linear_2046_2358" x1="38.6652" y1="2" x2="39.5892" y2="110.993" gradientUnits="userSpaceOnUse">
<stop offset="0.468418" stop-color="white"/>
<stop offset="1" stop-color="#012A8A"/>
</linearGradient>
<linearGradient id="paint1_linear_2046_2358" x1="38.6561" y1="4.98744" x2="39.3292" y2="107.79" gradientUnits="userSpaceOnUse">
<stop offset="0.468418" stop-color="white"/>
<stop offset="1" stop-color="#012A8A"/>
</linearGradient>
<linearGradient id="paint2_linear_2046_2358" x1="38.6276" y1="7.97465" x2="39.1313" y2="104.547" gradientUnits="userSpaceOnUse">
<stop offset="0.468418" stop-color="white"/>
<stop offset="1" stop-color="#012A8A"/>
</linearGradient>
<linearGradient id="paint3_linear_2046_2358" x1="38.6378" y1="10.9621" x2="39.0208" y2="101.343" gradientUnits="userSpaceOnUse">
<stop offset="0.468418" stop-color="white"/>
<stop offset="1" stop-color="#012A8A"/>
</linearGradient>
<linearGradient id="paint4_linear_2046_2358" x1="38.6094" y1="13.9874" x2="38.9027" y2="98.1365" gradientUnits="userSpaceOnUse">
<stop offset="0.468418" stop-color="white"/>
<stop offset="1" stop-color="#012A8A"/>
</linearGradient>
<linearGradient id="paint5_linear_2046_2358" x1="38.6195" y1="16.9753" x2="38.8449" y2="94.9316" gradientUnits="userSpaceOnUse">
<stop offset="0.468418" stop-color="white"/>
<stop offset="1" stop-color="#012A8A"/>
</linearGradient>
<linearGradient id="paint6_linear_2046_2358" x1="38.5911" y1="19.962" x2="38.7639" y2="91.6867" gradientUnits="userSpaceOnUse">
<stop offset="0.468418" stop-color="white"/>
<stop offset="1" stop-color="#012A8A"/>
</linearGradient>
<linearGradient id="paint7_linear_2046_2358" x1="38.6061" y1="22.9495" x2="38.7379" y2="88.4811" gradientUnits="userSpaceOnUse">
<stop offset="0.468418" stop-color="white"/>
<stop offset="1" stop-color="#012A8A"/>
</linearGradient>
<linearGradient id="paint8_linear_2046_2358" x1="38.5728" y1="25.9753" x2="38.6721" y2="85.275" gradientUnits="userSpaceOnUse">
<stop offset="0.468418" stop-color="white"/>
<stop offset="1" stop-color="#012A8A"/>
</linearGradient>
<linearGradient id="paint9_linear_2046_2358" x1="38.5833" y1="28.9627" x2="38.657" y2="82.0693" gradientUnits="userSpaceOnUse">
<stop offset="0.468418" stop-color="white"/>
<stop offset="1" stop-color="#012A8A"/>
</linearGradient>
<linearGradient id="paint10_linear_2046_2358" x1="38.5545" y1="31.9494" x2="38.6081" y2="78.8242" gradientUnits="userSpaceOnUse">
<stop offset="0.468418" stop-color="white"/>
<stop offset="1" stop-color="#012A8A"/>
</linearGradient>
<linearGradient id="paint11_linear_2046_2358" x1="38.565" y1="34.9374" x2="38.6027" y2="75.619" gradientUnits="userSpaceOnUse">
<stop offset="0.468418" stop-color="white"/>
<stop offset="1" stop-color="#012A8A"/>
</linearGradient>
<linearGradient id="paint12_linear_2046_2358" x1="38.5411" y1="37.9627" x2="38.5666" y2="72.4123" gradientUnits="userSpaceOnUse">
<stop offset="0.468418" stop-color="white"/>
<stop offset="1" stop-color="#012A8A"/>
</linearGradient>
<linearGradient id="paint13_linear_2046_2358" x1="38.5467" y1="40.9506" x2="38.5628" y2="69.2071" gradientUnits="userSpaceOnUse">
<stop offset="0.468418" stop-color="white"/>
<stop offset="1" stop-color="#012A8A"/>
</linearGradient>
<linearGradient id="paint14_linear_2046_2358" x1="38.5183" y1="43.9373" x2="38.5276" y2="65.9619" gradientUnits="userSpaceOnUse">
<stop offset="0.468418" stop-color="white"/>
<stop offset="1" stop-color="#012A8A"/>
</linearGradient>
<linearGradient id="paint15_linear_2046_2358" x1="38.5284" y1="46.9248" x2="38.5329" y2="62.7561" gradientUnits="userSpaceOnUse">
<stop offset="0.468418" stop-color="white"/>
<stop offset="1" stop-color="#012A8A"/>
</linearGradient>
<linearGradient id="paint16_linear_2046_2358" x1="38.5" y1="49.9506" x2="38.5016" y2="59.55" gradientUnits="userSpaceOnUse">
<stop offset="0.468418" stop-color="white"/>
<stop offset="1" stop-color="#012A8A"/>
</linearGradient>
</defs>
</svg>
