<svg width="100%" height="100%" viewBox="0 0 1551 64" preserveAspectRatio="xMidYMid meet" fill="none" xmlns="http://www.w3.org/2000/svg">
  <g>
    <path d="M0.5 26.8V12.8L12.8 0.8H232.8H1092.8L1096.8 3.6H1178.4L1182 0.8H1228L1240 14V49.6L1228 63.2H1189.6L1185.6 59.6H56L52 63.2H14L0.5 50.4V26.8Z" fill="#000714" fill-opacity="0.5"/>
    <path d="M0.5 12.8V26.8M0.5 12.8L12.8 0.8H232.8L1092.8 0.8L1096.8 3.6H1178.4L1182 0.8H1228L1240 14V49.6L1228 63.2H1189.6L1185.6 59.6H56L52 63.2H14L0.5 50.4V12.8Z" stroke="#0C3766"/>
  </g>
  <rect x="16.8" y="11.2" width="18.2236" height="2.4" fill="#0F5181"/>
  <rect x="46.4156" y="11.2" width="9.11176" height="2.4" fill="#0F5181"/>
  <rect x="126.1408" y="11.2" width="9.11176" height="2.4" fill="#0F5181"/>
  <rect x="142.0904" y="11.2" width="9.11176" height="2.4" fill="#0F5181"/>
  <rect x="66.9125" y="11.2" width="47.8369" height="2.4" fill="#0F5181"/>
</svg>