<svg width="1000" height="934" viewBox="0 0 1000 934" fill="none" xmlns="http://www.w3.org/2000/svg">
<g clip-path="url(#clip0_2071_2503)">
<path d="M4.5 79.5V35.5L0.5 32.5V15L16 0H412H880L885 3.5H921L925.5 0H983L999 16.5V916.5L983 933L935 934L930 929H70L65 934H17.5L0.5 917.5L0 83.5L4.5 79.5Z" fill="#000714" fill-opacity="0.5"/>
<path d="M4.5 35.5V79.5L0 83.5L0.5 917.5L17.5 934H65L70 929H930L935 934L983 933L999 916.5V16.5L983 0H925.5L921 3.5H885L880 0H412M4.5 35.5L0.5 32.5V15L16 0H412M4.5 35.5H405.5L412 29V0" stroke="#0C3766"/>
<path d="M16.9844 906.001H71.0957V912H16.9844V906.001ZM105.667 906.001H159.778V912H105.667V906.001ZM617.465 906H874.46V911.999H617.465V906ZM85.5268 906.001H91.2378V912H85.5268V906.001ZM198.258 906.001H203.969V912H198.258V906.001ZM207.578 906.001H213.289V912H207.578V906.001ZM415.768 906.001H421.479V912H415.768V906.001ZM425.089 906H430.8V911.999H425.089V906ZM929.511 906H935.222V911.999H929.511V906ZM954.963 906H960.674V911.999H954.963V906ZM980.414 906H986.125V911.999H980.414V906ZM543.735 906.001H549.446V912H543.735V906.001ZM327.827 906.001H333.538V912H327.827V906.001Z" fill="#1D9BF0" fill-opacity="0.5"/>
<rect x="962" y="104" width="3" height="53" rx="1.5" fill="#326AEA"/>
</g>
<defs>
<clipPath id="clip0_2071_2503">
<rect width="1000" height="934" fill="white"/>
</clipPath>
</defs>
</svg>
