<svg width="20" height="20" viewBox="0 0 20 20" fill="none" xmlns="http://www.w3.org/2000/svg">
<path d="M9.75 0.25C7.82164 0.25 5.93657 0.821828 4.33319 1.89317C2.72982 2.96451 1.48013 4.48726 0.742179 6.26884C0.00422452 8.05042 -0.188858 10.0108 0.187348 11.9021C0.563554 13.7934 1.49215 15.5307 2.85571 16.8943C4.21928 18.2579 5.95656 19.1865 7.84787 19.5627C9.73919 19.9389 11.6996 19.7458 13.4812 19.0078C15.2627 18.2699 16.7855 17.0202 17.8568 15.4168C18.9282 13.8134 19.5 11.9284 19.5 10C19.4973 7.41498 18.4692 4.93661 16.6413 3.10872C14.8134 1.28084 12.335 0.25273 9.75 0.25ZM9.75 18.25C8.11831 18.25 6.52326 17.7661 5.16655 16.8596C3.80984 15.9531 2.75242 14.6646 2.128 13.1571C1.50358 11.6496 1.3402 9.99085 1.65853 8.3905C1.97685 6.79016 2.76259 5.32015 3.91637 4.16637C5.07016 3.01259 6.54017 2.22685 8.14051 1.90852C9.74085 1.59019 11.3997 1.75357 12.9071 2.37799C14.4146 3.00242 15.7031 4.05984 16.6096 5.41655C17.5161 6.77325 18 8.3683 18 10C17.9975 12.1873 17.1275 14.2843 15.5809 15.8309C14.0343 17.3775 11.9373 18.2475 9.75 18.25ZM13.2806 8.71937C13.3503 8.78906 13.4056 8.87178 13.4433 8.96283C13.481 9.05387 13.5004 9.15145 13.5004 9.25C13.5004 9.34855 13.481 9.44613 13.4433 9.53717C13.4056 9.62822 13.3503 9.71094 13.2806 9.78063C13.2109 9.85031 13.1282 9.90558 13.0372 9.9433C12.9461 9.98101 12.8486 10.0004 12.75 10.0004C12.6515 10.0004 12.5539 9.98101 12.4628 9.9433C12.3718 9.90558 12.2891 9.85031 12.2194 9.78063L10.5 8.06031V13.75C10.5 13.9489 10.421 14.1397 10.2803 14.2803C10.1397 14.421 9.94892 14.5 9.75 14.5C9.55109 14.5 9.36033 14.421 9.21967 14.2803C9.07902 14.1397 9 13.9489 9 13.75V8.06031L7.28063 9.78063C7.1399 9.92136 6.94903 10.0004 6.75 10.0004C6.55098 10.0004 6.36011 9.92136 6.21938 9.78063C6.07865 9.63989 5.99959 9.44902 5.99959 9.25C5.99959 9.05098 6.07865 8.86011 6.21938 8.71937L9.21938 5.71937C9.28903 5.64964 9.37175 5.59432 9.4628 5.55658C9.55385 5.51884 9.65144 5.49941 9.75 5.49941C9.84857 5.49941 9.94616 5.51884 10.0372 5.55658C10.1283 5.59432 10.211 5.64964 10.2806 5.71937L13.2806 8.71937Z" fill="#3772FE"/>
</svg>
