<svg width="543" height="75" viewBox="0 0 543 75" fill="none" xmlns="http://www.w3.org/2000/svg">
<g clip-path="url(#clip0_2453_17603)">
<path d="M14.8407 1C3.76813 1 1 9 1 13V73H163L186.252 49.5H533.588C540.785 49.5 543 49.5 543 34V1H14.8407Z" fill="#1D9BF0" fill-opacity="0.1" stroke="#014F85"/>
<path d="M519.75 16.25C517.822 16.25 515.937 16.8218 514.333 17.8932C512.73 18.9645 511.48 20.4873 510.742 22.2688C510.004 24.0504 509.811 26.0108 510.187 27.9021C510.564 29.7934 511.492 31.5307 512.856 32.8943C514.219 34.2579 515.957 35.1865 517.848 35.5627C519.739 35.9389 521.7 35.7458 523.481 35.0078C525.263 34.2699 526.785 33.0202 527.857 31.4168C528.928 29.8134 529.5 27.9284 529.5 26C529.497 23.415 528.469 20.9366 526.641 19.1087C524.813 17.2808 522.335 16.2527 519.75 16.25ZM519.75 34.25C518.118 34.25 516.523 33.7661 515.167 32.8596C513.81 31.9531 512.752 30.6646 512.128 29.1571C511.504 27.6496 511.34 25.9908 511.659 24.3905C511.977 22.7902 512.763 21.3202 513.916 20.1664C515.07 19.0126 516.54 18.2268 518.141 17.9085C519.741 17.5902 521.4 17.7536 522.907 18.378C524.415 19.0024 525.703 20.0598 526.61 21.4165C527.516 22.7733 528 24.3683 528 26C527.998 28.1873 527.128 30.2843 525.581 31.8309C524.034 33.3775 521.937 34.2475 519.75 34.25ZM523.281 24.7194C523.35 24.7891 523.406 24.8718 523.443 24.9628C523.481 25.0539 523.5 25.1515 523.5 25.25C523.5 25.3485 523.481 25.4461 523.443 25.5372C523.406 25.6282 523.35 25.7109 523.281 25.7806C523.211 25.8503 523.128 25.9056 523.037 25.9433C522.946 25.981 522.849 26.0004 522.75 26.0004C522.651 26.0004 522.554 25.981 522.463 25.9433C522.372 25.9056 522.289 25.8503 522.219 25.7806L520.5 24.0603V29.75C520.5 29.9489 520.421 30.1397 520.28 30.2803C520.14 30.421 519.949 30.5 519.75 30.5C519.551 30.5 519.36 30.421 519.22 30.2803C519.079 30.1397 519 29.9489 519 29.75V24.0603L517.281 25.7806C517.14 25.9214 516.949 26.0004 516.75 26.0004C516.551 26.0004 516.36 25.9214 516.219 25.7806C516.079 25.6399 516 25.449 516 25.25C516 25.051 516.079 24.8601 516.219 24.7194L519.219 21.7194C519.289 21.6496 519.372 21.5943 519.463 21.5566C519.554 21.5188 519.651 21.4994 519.75 21.4994C519.849 21.4994 519.946 21.5188 520.037 21.5566C520.128 21.5943 520.211 21.6496 520.281 21.7194L523.281 24.7194Z" fill="#3772FE"/>
</g>
<defs>
<clipPath id="clip0_2453_17603">
<rect width="543" height="75" fill="white"/>
</clipPath>
</defs>
</svg>
